<?xml version="1.0" encoding="UTF-8" standalone="no"?>
<!-- Created with Inkscape (http://www.inkscape.org/) -->

<svg
   xmlns:dc="http://purl.org/dc/elements/1.1/"
   xmlns:cc="http://creativecommons.org/ns#"
   xmlns:rdf="http://www.w3.org/1999/02/22-rdf-syntax-ns#"
   xmlns:svg="http://www.w3.org/2000/svg"
   xmlns="http://www.w3.org/2000/svg"
   xmlns:sodipodi="http://sodipodi.sourceforge.net/DTD/sodipodi-0.dtd"
   xmlns:inkscape="http://www.inkscape.org/namespaces/inkscape"
   width="210mm"
   height="297mm"
   viewBox="0 0 210 297"
   version="1.1"
   id="svg8"
   inkscape:version="0.92.1 r15371"
   sodipodi:docname="kiffset.svg">
  <defs
     id="defs2">
    <inkscape:path-effect
       effect="simplify"
       id="path-effect15631"
       is_visible="true"
       steps="25"
       threshold="0.0133"
       smooth_angles="0"
       helper_size="5"
       simplify_individual_paths="false"
       simplify_just_coalesce="false" />
    <inkscape:path-effect
       effect="show_handles"
       id="path-effect15629"
       is_visible="true"
       nodes="true"
       handles="true"
       original_path="true"
       scale_nodes_and_handles="10" />
    <inkscape:path-effect
       effect="ruler"
       id="path-effect15627"
       is_visible="true"
       unit="px"
       mark_distance="20"
       mark_length="14"
       minor_mark_length="7"
       major_mark_steps="5"
       shift="0"
       offset="0"
       mark_dir="left"
       border_marks="both" />
    <inkscape:path-effect
       effect="roughen"
       id="path-effect15625"
       is_visible="true"
       method="segments"
       max_segment_size="10"
       segments="2"
       displace_x="10;1"
       displace_y="10;1"
       global_randomize="1;1"
       handles="along"
       shift_nodes="true"
       fixed_displacement="false"
       spray_tool_friendly="false" />
    <inkscape:path-effect
       effect="powerstroke"
       id="path-effect15623"
       is_visible="true"
       offset_points=""
       sort_points="true"
       interpolator_type="CubicBezierFit"
       interpolator_beta="0.2"
       start_linecap_type="butt"
       linejoin_type="extrp_arc"
       miter_limit="4"
       end_linecap_type="butt" />
    <inkscape:path-effect
       effect="skeletal"
       id="path-effect15621"
       is_visible="true"
       pattern="M 0,0 H 1"
       copytype="single_stretched"
       prop_scale="1"
       scale_y_rel="false"
       spacing="0"
       normal_offset="0"
       tang_offset="0"
       prop_units="false"
       vertical_pattern="false"
       fuse_tolerance="0" />
    <inkscape:path-effect
       effect="lattice2"
       gridpoint0="122.60997,151.11592"
       gridpoint1="134.48497,151.11592"
       gridpoint2="122.60997,172.05342"
       gridpoint3="134.48497,172.05342"
       gridpoint4="125.57872,151.11592"
       gridpoint5="131.51622,151.11592"
       gridpoint6="125.57872,172.05342"
       gridpoint7="131.51622,172.05342"
       gridpoint8x9="128.54747,151.11592"
       gridpoint10x11="128.54747,172.05342"
       gridpoint12="122.60997,156.35029"
       gridpoint13="134.48497,156.35029"
       gridpoint14="122.60997,166.81904"
       gridpoint15="134.48497,166.81904"
       gridpoint16="125.57872,156.35029"
       gridpoint17="131.51622,156.35029"
       gridpoint18="125.57872,166.81904"
       gridpoint19="131.51622,166.81904"
       gridpoint20x21="128.54747,156.35029"
       gridpoint22x23="128.54747,166.81904"
       gridpoint24x26="122.60997,161.58467"
       gridpoint25x27="134.48497,161.58467"
       gridpoint28x30="125.57872,161.58467"
       gridpoint29x31="131.51622,161.58467"
       gridpoint32x33x34x35="128.54747,161.58467"
       id="path-effect15619"
       is_visible="true"
       horizontal_mirror="false"
       vertical_mirror="false"
       live_update="true" />
    <inkscape:path-effect
       effect="knot"
       id="path-effect15617"
       is_visible="true"
       interruption_width="3"
       prop_to_stroke_width="true"
       add_stroke_width="true"
       add_other_stroke_width="true"
       switcher_size="15"
       crossing_points_vector="" />
    <inkscape:path-effect
       effect="rough_hatches"
       id="path-effect15615"
       is_visible="true"
       direction="128.54747,156.58467 , 2.96875,0"
       dist_rdm="75;1"
       growth="0"
       do_bend="true"
       bender="128.54747,161.58467 , 5,0"
       bottom_edge_variation="2.09375;1"
       top_edge_variation="2.09375;1"
       bottom_tgt_variation="0;1"
       top_tgt_variation="0;1"
       scale_bf="1"
       scale_bb="1"
       scale_tf="1"
       scale_tb="1"
       top_smth_variation="0;1"
       bottom_smth_variation="0;1"
       fat_output="true"
       stroke_width_top="1"
       stroke_width_bottom="1"
       front_thickness="1"
       back_thickness="0.25" />
    <inkscape:path-effect
       effect="construct_grid"
       id="path-effect15613"
       is_visible="true"
       nr_x="5"
       nr_y="5" />
  </defs>
  <sodipodi:namedview
     id="base"
     pagecolor="#ffffff"
     bordercolor="#666666"
     borderopacity="1.0"
     inkscape:pageopacity="0.0"
     inkscape:pageshadow="2"
     inkscape:zoom="1.4142136"
     inkscape:cx="362.25181"
     inkscape:cy="522.00679"
     inkscape:document-units="mm"
     inkscape:current-layer="layer1"
     showgrid="false"
     inkscape:window-width="1920"
     inkscape:window-height="1017"
     inkscape:window-x="-8"
     inkscape:window-y="196"
     inkscape:window-maximized="1" />
  <metadata
     id="metadata5">
    <rdf:RDF>
      <cc:Work
         rdf:about="">
        <dc:format>image/svg+xml</dc:format>
        <dc:type
           rdf:resource="http://purl.org/dc/dcmitype/StillImage" />
        <dc:title></dc:title>
      </cc:Work>
    </rdf:RDF>
  </metadata>
  <g
     inkscape:label="Layer 1"
     inkscape:groupmode="layer"
     id="layer1">
    <g
       id="g15527">
      <g
         id="g15440">
        <path
           inkscape:connector-curvature="0"
           id="path14763"
           d="m 74.54747,156.55342 q 0.25,-0.25 0.625,-0.375 0.375,-0.125 0.75,0 0.375,0.125 0.625,0.375 0.25,0.25 0.5,0.5 0.25,0.25 0.375,0.625 0.125,0.375 0.25,0.75 0.125,0.375 0.5,0.5 0.375,0.125 0.75,0.25 0.375,0.125 0.5,0.5 0.125,0.375 0,0.75 -0.125,0.375 -0.375,0.625 -0.25,0.25 -0.5,0.5 -0.25,0.25 -0.5,0.5 -0.25,0.25 -0.375,0.625 -0.125,0.375 -0.125,0.875 0,0.5 0.125,0.875 0.125,0.375 0.375,0.625 0.25,0.25 0.375,0.625 0.125,0.375 0.125,0.875 v 0.5 l -0.375,-0.125 q -0.375,-0.125 -0.625,-0.375 -0.25,-0.25 -0.5,-0.5 -0.25,-0.25 -0.375,-0.625 -0.125,-0.375 -0.125,-0.875 0,-0.5 0,-1 0,-0.5 0,-1 0,-0.5 0.125,-0.875 0.125,-0.375 0.375,-0.625 0.25,-0.25 0.25,-0.5 0,-0.25 -0.25,-0.5 -0.25,-0.25 -0.375,-0.625 -0.125,-0.375 -0.25,-0.75 -0.125,-0.375 -0.5,-0.5 -0.375,-0.125 -0.75,0 -0.375,0.125 -0.5,0.5 -0.125,0.375 -0.25,0.75 -0.125,0.375 -0.375,0.625 -0.25,0.25 -0.25,0.5 0,0.25 0.25,0.5 0.25,0.25 0.375,0.625 0.125,0.375 0.125,0.875 0,0.5 0,1 0,0.5 0,1 0,0.5 -0.125,0.875 -0.125,0.375 -0.375,0.625 -0.25,0.25 -0.5,0.5 -0.25,0.25 -0.625,0.375 l -0.375,0.125 v -0.5 q 0,-0.5 0.125,-0.875 0.125,-0.375 0.375,-0.625 0.25,-0.25 0.375,-0.625 0.125,-0.375 0.125,-0.875 0,-0.5 -0.125,-0.875 -0.125,-0.375 -0.375,-0.625 -0.25,-0.25 -0.5,-0.5 -0.25,-0.25 -0.5,-0.5 -0.25,-0.25 -0.375,-0.625 -0.125,-0.375 0,-0.75 0.125,-0.375 0.5,-0.5 0.375,-0.125 0.75,-0.25 0.375,-0.125 0.5,-0.5 0.125,-0.375 0.25,-0.75 0.125,-0.375 0.375,-0.625 0.25,-0.25 0.5,-0.5"
           style="fill:#000000;fill-opacity:1" />
        <path
           inkscape:connector-curvature="0"
           id="path14773"
           d="m 74.67247,158.67842 q 0.125,-0.375 0.5,-0.5 0.375,-0.125 0.75,0 0.375,0.125 0.5,0.5 0.125,0.375 0.25,0.75 0.125,0.375 0.375,0.625 0.25,0.25 0.25,0.5 0,0.25 -0.25,0.5 -0.25,0.25 -0.375,0.625 -0.125,0.375 -0.125,0.875 0,0.5 0,1 0,0.5 0,1 0,0.5 0.125,0.875 0.125,0.375 0.375,0.625 0.25,0.25 0.5,0.5 0.25,0.25 0.625,0.375 l 0.375,0.125 -0.125,0.375 q -0.125,0.375 -0.5,0.5 -0.375,0.125 -0.75,0.25 -0.375,0.125 -0.625,0.375 -0.25,0.25 -0.625,0.375 -0.375,0.125 -0.75,0 -0.375,-0.125 -0.625,-0.375 -0.25,-0.25 -0.625,-0.375 -0.375,-0.125 -0.75,-0.25 -0.375,-0.125 -0.5,-0.5 l -0.125,-0.375 0.375,-0.125 q 0.375,-0.125 0.625,-0.375 0.25,-0.25 0.5,-0.5 0.25,-0.25 0.375,-0.625 0.125,-0.375 0.125,-0.875 0,-0.5 0,-1 0,-0.5 0,-1 0,-0.5 -0.125,-0.875 -0.125,-0.375 -0.375,-0.625 -0.25,-0.25 -0.25,-0.5 0,-0.25 0.25,-0.5 0.25,-0.25 0.375,-0.625 0.125,-0.375 0.25,-0.75"
           style="fill:#ffffff;fill-opacity:1" />
        <path
           sodipodi:nodetypes="cscsssssssssscssccssssssccccccccssssssccccsssssssssssssssssssccccccc"
           inkscape:connector-curvature="0"
           id="path14791"
           d="m 71.54747,167.55342 c 0.166667,-0.16667 0.519486,-0.55993 0.636693,-0.79595 l 0.468544,-0.94351 1.645308,-0.23689 c 0.260834,-0.0376 -1.375545,2.26805 -1.125545,2.35138 l 0.75,0.25 c 0.25,0.0833 0.458333,0.20833 0.625,0.375 0.166667,0.16667 0.375,0.29167 0.625,0.375 0.25,0.0833 0.5,0.0833 0.75,0 0.25,-0.0833 0.458333,-0.20833 0.625,-0.375 0.166667,-0.16667 0.375,-0.29167 0.625,-0.375 l 0.75,-0.25 c 0.25,-0.0833 -1.370897,-2.34642 -1.110215,-2.30782 l 1.635996,0.2422 0.441146,0.81953 c 0.124901,0.23203 0.491406,0.70442 0.658073,0.87109 l 0.5,0.5 0.5,0.5 0.5,0.5 c 0.166667,0.16667 0.291667,0.375 0.375,0.625 0.08333,0.25 0.125,0.54167 0.125,0.875 0,0.33333 -0.04167,0.625 -0.125,0.875 -0.08333,0.25 -0.25,0.41667 -0.5,0.5 -0.25,0.0833 -0.541667,0.125 -0.875,0.125 h -1 -1 -1 -1 -1 -1 -1 -1 -1 c -0.333333,0 -0.625,-0.0417 -0.875,-0.125 -0.25,-0.0833 -0.416667,-0.25 -0.5,-0.5 -0.08333,-0.25 -0.125,-0.54167 -0.125,-0.875 0,-0.33333 0.04167,-0.625 0.125,-0.875 0.08333,-0.25 0.208333,-0.45833 0.375,-0.625 l 0.5,-0.5 0.5,-0.5 0.5,-0.5 m 7.5,3.5 c 0.333333,0 0.625,-0.0417 0.875,-0.125 0.25,-0.0833 0.416667,-0.25 0.5,-0.5 0.08333,-0.25 0.08333,-0.5 0,-0.75 -0.08333,-0.25 -0.25,-0.41667 -0.5,-0.5 -0.25,-0.0833 -0.541667,-0.125 -0.875,-0.125 -0.333333,0 -0.625,0.0417 -0.875,0.125 -0.25,0.0833 -0.458333,0.20833 -0.625,0.375 -0.166667,0.16667 -0.375,0.29167 -0.625,0.375 -0.25,0.0833 -0.541667,0.125 -0.875,0.125 h -1 c -0.333333,0 -0.625,-0.0417 -0.875,-0.125 -0.25,-0.0833 -0.458333,-0.20833 -0.625,-0.375 -0.166667,-0.16667 -0.375,-0.29167 -0.625,-0.375 -0.25,-0.0833 -0.541667,-0.125 -0.875,-0.125 -0.333333,0 -0.625,0.0417 -0.875,0.125 -0.25,0.0833 -0.416667,0.25 -0.5,0.5 -0.08333,0.25 -0.08333,0.5 0,0.75 0.08333,0.25 0.25,0.41667 0.5,0.5 0.25,0.0833 0.541667,0.125 0.875,0.125 h 1 1 1 1 1 1 1"
           style="fill:#000000;fill-opacity:1" />
        <path
           inkscape:connector-curvature="0"
           id="path14793"
           d="m 70.67247,169.67842 q 0.125,-0.375 0.5,-0.5 0.375,-0.125 0.875,-0.125 0.5,0 0.875,0.125 0.375,0.125 0.625,0.375 0.25,0.25 0.625,0.375 0.375,0.125 0.875,0.125 0.5,0 1,0 0.5,0 0.875,-0.125 0.375,-0.125 0.625,-0.375 0.25,-0.25 0.625,-0.375 0.375,-0.125 0.875,-0.125 0.5,0 0.875,0.125 0.375,0.125 0.5,0.5 0.125,0.375 0,0.75 -0.125,0.375 -0.5,0.5 -0.375,0.125 -0.875,0.125 -0.5,0 -1,0 -0.5,0 -1,0 -0.5,0 -1,0 -0.5,0 -1,0 -0.5,0 -1,0 -0.5,0 -1,0 -0.5,0 -1,0 -0.5,0 -0.875,-0.125 -0.375,-0.125 -0.5,-0.5 -0.125,-0.375 0,-0.75"
           style="fill:#ffffff;fill-opacity:1" />
      </g>
    </g>
    <g
       id="g15447">
      <path
         style="fill:#000000;fill-opacity:1"
         d="m 88.54747,153.55342 q 0.25,-0.25 0.5,-0.25 0.25,0 0.5,0.25 0.25,0.25 0.5,0.5 0.25,0.25 0.375,0.625 0.125,0.375 0.25,0.75 0.125,0.375 0.375,0.375 0.25,0 0.375,-0.375 0.125,-0.375 0.25,-0.75 0.125,-0.375 0.375,-0.625 0.25,-0.25 0.5,-0.5 0.25,-0.25 0.5,-0.25 0.25,0 0.5,0.25 0.25,0.25 0.5,0.5 0.25,0.25 0.375,0.625 0.125,0.375 0.25,0.75 0.125,0.375 0.375,0.375 0.25,0 0.375,-0.375 0.125,-0.375 0.25,-0.75 0.125,-0.375 0.375,-0.625 0.25,-0.25 0.5,-0.5 0.25,-0.25 0.5,-0.25 0.25,0 0.5,0.25 0.25,0.25 0.5,0.5 0.25,0.25 0.375,0.625 0.125,0.375 0.125,0.875 0,0.5 0,1 0,0.5 -0.125,0.875 -0.125,0.375 -0.375,0.625 -0.25,0.25 -0.5,0.5 -0.25,0.25 -0.5,0.5 -0.25,0.25 -0.375,0.625 -0.125,0.375 -0.125,0.875 0,0.5 0,1 0,0.5 0,1 0,0.5 0,1 0,0.5 0,1 0,0.5 0,1 0,0.5 0,1 0,0.5 0.125,0.875 0.125,0.375 0.375,0.625 0.25,0.25 0.5,0.5 0.25,0.25 0.5,0.5 0.25,0.25 0.5,0.5 0.25,0.25 0.5,0.5 0.25,0.25 0.375,0.625 0.125,0.375 0,0.75 -0.125,0.375 -0.5,0.5 -0.375,0.125 -0.875,0.125 -0.5,0 -1,0 -0.5,0 -1,0 -0.5,0 -1,0 -0.5,0 -1,0 -0.5,0 -1,0 -0.5,0 -1,0 -0.5,0 -1,0 -0.5,0 -1,0 -0.5,0 -1,0 -0.5,0 -1,0 -0.5,0 -0.875,-0.125 -0.375,-0.125 -0.5,-0.5 -0.125,-0.375 0,-0.75 0.125,-0.375 0.375,-0.625 0.25,-0.25 0.5,-0.5 0.25,-0.25 0.5,-0.5 0.25,-0.25 0.5,-0.5 0.25,-0.25 0.5,-0.5 0.25,-0.25 0.375,-0.625 0.125,-0.375 0.125,-0.875 0,-0.5 0,-1 0,-0.5 0,-1 0,-0.5 0,-1 0,-0.5 0,-1 0,-0.5 0,-1 0,-0.5 0,-1 0,-0.5 -0.125,-0.875 -0.125,-0.375 -0.375,-0.625 -0.25,-0.25 -0.5,-0.5 -0.25,-0.25 -0.5,-0.5 -0.25,-0.25 -0.375,-0.625 -0.125,-0.375 -0.125,-0.875 0,-0.5 0,-1 0,-0.5 0.125,-0.875 0.125,-0.375 0.375,-0.625 0.25,-0.25 0.5,-0.5 m 8.5,17.5 q 0.5,0 0.875,-0.125 0.375,-0.125 0.375,-0.375 0,-0.25 -0.25,-0.5 -0.25,-0.25 -0.5,-0.5 -0.25,-0.25 -0.625,-0.375 -0.375,-0.125 -0.875,-0.125 -0.5,0 -1,0 -0.5,0 -1,0 -0.5,0 -1,0 -0.5,0 -1,0 -0.5,0 -1,0 -0.5,0 -1,0 -0.5,0 -0.875,0.125 -0.375,0.125 -0.625,0.375 -0.25,0.25 -0.5,0.5 -0.25,0.25 -0.25,0.5 0,0.25 0.375,0.375 0.375,0.125 0.875,0.125 0.5,0 1,0 0.5,0 1,0 0.5,0 1,0 0.5,0 1,0 0.5,0 1,0 0.5,0 1,0 0.5,0 1,0 0.5,0 1,0 m -3,-3 q 0.5,0 0.875,-0.125 0.375,-0.125 0.5,-0.5 0.125,-0.375 0.125,-0.875 0,-0.5 0,-1 0,-0.5 0,-1 0,-0.5 0,-1 0,-0.5 0,-1 0,-0.5 0,-1 0,-0.5 0,-1 0,-0.5 -0.125,-0.875 -0.125,-0.375 -0.375,-0.375 -0.25,0 -0.5,0.25 -0.25,0.25 -0.625,0.375 -0.375,0.125 -0.875,0.125 -0.5,0 -0.875,-0.125 -0.375,-0.125 -0.625,-0.375 -0.25,-0.25 -0.5,-0.25 -0.25,0 -0.375,0.375 -0.125,0.375 -0.125,0.875 0,0.5 0,1 0,0.5 0,1 0,0.5 0,1 0,0.5 0,1 0,0.5 0,1 0,0.5 0,1 0,0.5 0.125,0.875 0.125,0.375 0.5,0.5 0.375,0.125 0.875,0.125 0.5,0 1,0 0.5,0 1,0 m -1.5,-9.5 q 0.25,0.25 0.5,0.25 0.25,0 0.5,-0.25 0.25,-0.25 0.625,-0.375 0.375,-0.125 0.875,-0.125 0.5,0 0.875,-0.125 0.375,-0.125 0.625,-0.375 0.25,-0.25 0.5,-0.5 0.25,-0.25 0.375,-0.625 0.125,-0.375 0.125,-0.875 0,-0.5 -0.125,-0.875 -0.125,-0.375 -0.375,-0.375 -0.25,0 -0.375,0.375 -0.125,0.375 -0.25,0.75 -0.125,0.375 -0.375,0.625 -0.25,0.25 -0.5,0.5 -0.25,0.25 -0.5,0.25 -0.25,0 -0.5,-0.25 -0.25,-0.25 -0.5,-0.5 -0.25,-0.25 -0.375,-0.625 -0.125,-0.375 -0.25,-0.75 -0.125,-0.375 -0.375,-0.375 -0.25,0 -0.375,0.375 -0.125,0.375 -0.25,0.75 -0.125,0.375 -0.375,0.625 -0.25,0.25 -0.5,0.5 -0.25,0.25 -0.5,0.25 -0.25,0 -0.5,-0.25 -0.25,-0.25 -0.5,-0.5 -0.25,-0.25 -0.375,-0.625 -0.125,-0.375 -0.25,-0.75 -0.125,-0.375 -0.375,-0.375 -0.25,0 -0.375,0.375 -0.125,0.375 -0.125,0.875 0,0.5 0.125,0.875 0.125,0.375 0.375,0.625 0.25,0.25 0.5,0.5 0.25,0.25 0.625,0.375 0.375,0.125 0.875,0.125 0.5,0 0.875,0.125 0.375,0.125 0.625,0.375"
         id="path14751"
         inkscape:connector-curvature="0" />
      <path
         style="fill:#ffffff;fill-opacity:1"
         d="m 88.67247,154.67842 q 0.125,-0.375 0.375,-0.375 0.25,0 0.375,0.375 0.125,0.375 0.25,0.75 0.125,0.375 0.375,0.625 0.25,0.25 0.5,0.5 0.25,0.25 0.5,0.25 0.25,0 0.5,-0.25 0.25,-0.25 0.5,-0.5 0.25,-0.25 0.375,-0.625 0.125,-0.375 0.25,-0.75 0.125,-0.375 0.375,-0.375 0.25,0 0.375,0.375 0.125,0.375 0.25,0.75 0.125,0.375 0.375,0.625 0.25,0.25 0.5,0.5 0.25,0.25 0.5,0.25 0.25,0 0.5,-0.25 0.25,-0.25 0.5,-0.5 0.25,-0.25 0.375,-0.625 0.125,-0.375 0.25,-0.75 0.125,-0.375 0.375,-0.375 0.25,0 0.375,0.375 0.125,0.375 0.125,0.875 0,0.5 -0.125,0.875 -0.125,0.375 -0.375,0.625 -0.25,0.25 -0.5,0.5 -0.25,0.25 -0.625,0.375 -0.375,0.125 -0.875,0.125 -0.5,0 -0.875,0.125 -0.375,0.125 -0.625,0.375 -0.25,0.25 -0.5,0.25 -0.25,0 -0.5,-0.25 -0.25,-0.25 -0.625,-0.375 -0.375,-0.125 -0.875,-0.125 -0.5,0 -0.875,-0.125 -0.375,-0.125 -0.625,-0.375 -0.25,-0.25 -0.5,-0.5 -0.25,-0.25 -0.375,-0.625 -0.125,-0.375 -0.125,-0.875 0,-0.5 0.125,-0.875"
         id="path14761"
         inkscape:connector-curvature="0" />
      <path
         style="fill:#ffffff;fill-opacity:1"
         d="m 90.67247,159.67842 q 0.125,-0.375 0.375,-0.375 0.25,0 0.5,0.25 0.25,0.25 0.625,0.375 0.375,0.125 0.875,0.125 0.5,0 0.875,-0.125 0.375,-0.125 0.625,-0.375 0.25,-0.25 0.5,-0.25 0.25,0 0.375,0.375 0.125,0.375 0.125,0.875 0,0.5 0,1 0,0.5 0,1 0,0.5 0,1 0,0.5 0,1 0,0.5 0,1 0,0.5 0,1 0,0.5 -0.125,0.875 -0.125,0.375 -0.5,0.5 -0.375,0.125 -0.875,0.125 -0.5,0 -1,0 -0.5,0 -1,0 -0.5,0 -0.875,-0.125 -0.375,-0.125 -0.5,-0.5 -0.125,-0.375 -0.125,-0.875 0,-0.5 0,-1 0,-0.5 0,-1 0,-0.5 0,-1 0,-0.5 0,-1 0,-0.5 0,-1 0,-0.5 0,-1 0,-0.5 0.125,-0.875 m 2,5.75 q 0.125,0.375 0.375,0.375 0.25,0 0.375,-0.375 0.125,-0.375 0.125,-0.875 0,-0.5 0,-1 0,-0.5 0,-1 0,-0.5 -0.125,-0.875 -0.125,-0.375 -0.375,-0.375 -0.25,0 -0.375,0.375 -0.125,0.375 -0.125,0.875 0,0.5 0,1 0,0.5 0,1 0,0.5 0.125,0.875"
         id="path14775"
         inkscape:connector-curvature="0" />
      <path
         style="fill:#000000;fill-opacity:1"
         d="m 92.67247,161.67842 q 0.125,-0.375 0.375,-0.375 0.25,0 0.375,0.375 0.125,0.375 0.125,0.875 0,0.5 0,1 0,0.5 0,1 0,0.5 -0.125,0.875 -0.125,0.375 -0.375,0.375 -0.25,0 -0.375,-0.375 -0.125,-0.375 -0.125,-0.875 0,-0.5 0,-1 0,-0.5 0,-1 0,-0.5 0.125,-0.875"
         id="path14781"
         inkscape:connector-curvature="0" />
      <path
         style="fill:#ffffff;fill-opacity:1"
         d="m 88.54747,169.55342 q 0.25,-0.25 0.625,-0.375 0.375,-0.125 0.875,-0.125 0.5,0 1,0 0.5,0 1,0 0.5,0 1,0 0.5,0 1,0 0.5,0 1,0 0.5,0 1,0 0.5,0 0.875,0.125 0.375,0.125 0.625,0.375 0.25,0.25 0.5,0.5 0.25,0.25 0.25,0.5 0,0.25 -0.375,0.375 -0.375,0.125 -0.875,0.125 -0.5,0 -1,0 -0.5,0 -1,0 -0.5,0 -1,0 -0.5,0 -1,0 -0.5,0 -1,0 -0.5,0 -1,0 -0.5,0 -1,0 -0.5,0 -1,0 -0.5,0 -0.875,-0.125 -0.375,-0.125 -0.375,-0.375 0,-0.25 0.25,-0.5 0.25,-0.25 0.5,-0.5"
         id="path14795"
         inkscape:connector-curvature="0" />
    </g>
    <g
       id="g15454">
      <path
         style="fill:#000000;fill-opacity:1"
         d="m 111.54747,152.55342 q 0.25,-0.25 0.5,-0.25 0.25,0 0.5,0.25 0.25,0.25 0.5,0.5 0.25,0.25 0.5,0.5 0.25,0.25 0.5,0.5 0.25,0.25 0.375,0.625 0.125,0.375 0.25,0.75 0.125,0.375 0.375,0.625 0.25,0.25 0.5,0.5 0.25,0.25 0.5,0.5 0.25,0.25 0.375,0.625 0.125,0.375 0.125,0.875 0,0.5 0,1 0,0.5 0,1 0,0.5 0,1 0,0.5 -0.125,0.875 -0.125,0.375 -0.375,0.625 -0.25,0.25 -0.375,0.625 -0.125,0.375 -0.125,0.875 0,0.5 -0.125,0.875 -0.125,0.375 -0.375,0.625 -0.25,0.25 -0.5,0.5 -0.25,0.25 -0.5,0.5 -0.25,0.25 -0.25,0.5 0,0.25 0.25,0.5 0.25,0.25 0.5,0.5 0.25,0.25 0.5,0.5 0.25,0.25 0.5,0.5 0.25,0.25 0.5,0.5 0.25,0.25 0.375,0.625 0.125,0.375 0,0.75 -0.125,0.375 -0.5,0.5 -0.375,0.125 -0.875,0.125 -0.5,0 -1,0 -0.5,0 -1,0 -0.5,0 -1,0 -0.5,0 -1,0 -0.5,0 -1,0 -0.5,0 -1,0 -0.5,0 -1,0 -0.5,0 -1,0 -0.5,0 -1,0 -0.5,0 -0.875,-0.125 -0.375,-0.125 -0.5,-0.5 -0.125,-0.375 0,-0.75 0.125,-0.375 0.375,-0.625 0.25,-0.25 0.5,-0.5 0.25,-0.25 0.5,-0.5 0.25,-0.25 0.5,-0.5 0.25,-0.25 0.5,-0.5 0.25,-0.25 0.375,-0.625 0.125,-0.375 0.125,-0.875 0,-0.5 0,-1 0,-0.5 0.125,-0.875 0.125,-0.375 0.375,-0.625 0.25,-0.25 0.375,-0.625 0.125,-0.375 0.125,-0.875 0,-0.5 -0.125,-0.875 -0.125,-0.375 -0.5,-0.5 -0.375,-0.125 -0.875,-0.125 -0.5,0 -0.875,-0.125 -0.375,-0.125 -0.625,-0.375 -0.25,-0.25 -0.5,-0.5 -0.25,-0.25 -0.375,-0.625 -0.125,-0.375 0,-0.75 0.125,-0.375 0.375,-0.625 0.25,-0.25 0.5,-0.5 0.25,-0.25 0.5,-0.5 0.25,-0.25 0.5,-0.5 0.25,-0.25 0.5,-0.5 0.25,-0.25 0.5,-0.5 0.25,-0.25 0.5,-0.5 0.25,-0.25 0.375,-0.625 0.125,-0.375 0.25,-0.75 0.125,-0.375 0.5,-0.5 0.375,-0.125 0.875,-0.125 0.5,0 0.875,-0.125 0.375,-0.125 0.625,-0.375 m 2.5,18.5 q 0.5,0 0.875,-0.125 0.375,-0.125 0.375,-0.375 0,-0.25 -0.25,-0.5 -0.25,-0.25 -0.5,-0.5 -0.25,-0.25 -0.625,-0.375 -0.375,-0.125 -0.875,-0.125 -0.5,0 -1,0 -0.5,0 -1,0 -0.5,0 -1,0 -0.5,0 -1,0 -0.5,0 -1,0 -0.5,0 -0.875,0.125 -0.375,0.125 -0.625,0.375 -0.25,0.25 -0.5,0.5 -0.25,0.25 -0.25,0.5 0,0.25 0.375,0.375 0.375,0.125 0.875,0.125 0.5,0 1,0 0.5,0 1,0 0.5,0 1,0 0.5,0 1,0 0.5,0 1,0 0.5,0 1,0 0.5,0 1,0 m -2.375,-3.625 q 0.125,0.375 0.375,0.375 0.25,0 0.5,-0.25 0.25,-0.25 0.5,-0.5 0.25,-0.25 0.5,-0.5 0.25,-0.25 0.5,-0.5 0.25,-0.25 0.375,-0.625 0.125,-0.375 0.125,-0.875 0,-0.5 0.125,-0.875 0.125,-0.375 0.375,-0.625 0.25,-0.25 0.375,-0.625 0.125,-0.375 0.125,-0.875 0,-0.5 0,-1 0,-0.5 0,-1 0,-0.5 0,-1 0,-0.5 -0.125,-0.875 -0.125,-0.375 -0.375,-0.375 -0.25,0 -0.5,0.25 -0.25,0.25 -0.5,0.5 -0.25,0.25 -0.375,0.625 -0.125,0.375 -0.125,0.875 0,0.5 0,1 0,0.5 0,1 0,0.5 -0.125,0.875 -0.125,0.375 -0.375,0.625 -0.25,0.25 -0.375,0.625 -0.125,0.375 -0.125,0.875 0,0.5 -0.125,0.875 -0.125,0.375 -0.375,0.625 -0.25,0.25 -0.375,0.625 -0.125,0.375 0,0.75 m -2.5,0.5 q 0.375,0.125 0.75,0 0.375,-0.125 0.5,-0.5 0.125,-0.375 0.25,-0.75 0.125,-0.375 0.375,-0.625 0.25,-0.25 0.375,-0.625 0.125,-0.375 0.125,-0.875 0,-0.5 0.125,-0.875 0.125,-0.375 0.375,-0.625 0.25,-0.25 0.375,-0.625 0.125,-0.375 0.125,-0.875 0,-0.5 0,-1 0,-0.5 0,-1 0,-0.5 0.125,-0.875 0.125,-0.375 0.375,-0.625 0.25,-0.25 0.375,-0.625 0.125,-0.375 0.125,-0.875 0,-0.5 -0.125,-0.875 -0.125,-0.375 -0.375,-0.625 -0.25,-0.25 -0.375,-0.625 -0.125,-0.375 -0.25,-0.75 -0.125,-0.375 -0.375,-0.375 -0.25,0 -0.375,0.375 -0.125,0.375 -0.25,0.75 -0.125,0.375 -0.5,0.5 -0.375,0.125 -0.875,0.125 -0.5,0 -0.875,0.125 -0.375,0.125 -0.625,0.375 -0.25,0.25 -0.5,0.5 -0.25,0.25 -0.5,0.5 -0.25,0.25 -0.5,0.5 -0.25,0.25 -0.5,0.5 -0.25,0.25 -0.5,0.5 -0.25,0.25 -0.375,0.625 -0.125,0.375 0,0.75 0.125,0.375 0.5,0.5 0.375,0.125 0.875,0.125 0.5,0 1,0 0.5,0 0.875,0.125 0.375,0.125 0.5,0.5 0.125,0.375 0.125,0.875 0,0.5 0,1 0,0.5 -0.125,0.875 -0.125,0.375 -0.375,0.625 -0.25,0.25 -0.375,0.625 -0.125,0.375 -0.125,0.875 0,0.5 0,1 0,0.5 0.125,0.875 0.125,0.375 0.5,0.5"
         id="path14747"
         inkscape:connector-curvature="0" />
      <path
         style="fill:#ffffff;fill-opacity:1"
         d="m 111.67247,153.67842 q 0.125,-0.375 0.375,-0.375 0.25,0 0.375,0.375 0.125,0.375 0.25,0.75 0.125,0.375 0.375,0.625 0.25,0.25 0.375,0.625 0.125,0.375 0.125,0.875 0,0.5 -0.125,0.875 -0.125,0.375 -0.375,0.625 -0.25,0.25 -0.375,0.625 -0.125,0.375 -0.125,0.875 0,0.5 0,1 0,0.5 0,1 0,0.5 -0.125,0.875 -0.125,0.375 -0.375,0.625 -0.25,0.25 -0.375,0.625 -0.125,0.375 -0.125,0.875 0,0.5 -0.125,0.875 -0.125,0.375 -0.375,0.625 -0.25,0.25 -0.375,0.625 -0.125,0.375 -0.25,0.75 -0.125,0.375 -0.5,0.5 -0.375,0.125 -0.75,0 -0.375,-0.125 -0.5,-0.5 -0.125,-0.375 -0.125,-0.875 0,-0.5 0,-1 0,-0.5 0.125,-0.875 0.125,-0.375 0.375,-0.625 0.25,-0.25 0.375,-0.625 0.125,-0.375 0.125,-0.875 0,-0.5 0,-1 0,-0.5 -0.125,-0.875 -0.125,-0.375 -0.5,-0.5 -0.375,-0.125 -0.875,-0.125 -0.5,0 -1,0 -0.5,0 -0.875,-0.125 -0.375,-0.125 -0.5,-0.5 -0.125,-0.375 0,-0.75 0.125,-0.375 0.375,-0.625 0.25,-0.25 0.5,-0.5 0.25,-0.25 0.5,-0.5 0.25,-0.25 0.5,-0.5 0.25,-0.25 0.5,-0.5 0.25,-0.25 0.5,-0.5 0.25,-0.25 0.625,-0.375 0.375,-0.125 0.875,-0.125 0.5,0 0.875,-0.125 0.375,-0.125 0.5,-0.5 0.125,-0.375 0.25,-0.75 m -1.875,2.875 q 0,0.25 0.25,0.25 0.25,0 0.25,-0.25 0,-0.25 -0.25,-0.25 -0.25,0 -0.25,0.25"
         id="path14753"
         inkscape:connector-curvature="0" />
      <path
         style="fill:#000000;fill-opacity:1"
         d="m 109.79747,156.55342 q 0,-0.25 0.25,-0.25 0.25,0 0.25,0.25 0,0.25 -0.25,0.25 -0.25,0 -0.25,-0.25"
         id="path14765"
         inkscape:connector-curvature="0" />
      <path
         style="fill:#ffffff;fill-opacity:1"
         d="m 114.54747,157.55342 q 0.25,-0.25 0.5,-0.25 0.25,0 0.375,0.375 0.125,0.375 0.125,0.875 0,0.5 0,1 0,0.5 0,1 0,0.5 0,1 0,0.5 -0.125,0.875 -0.125,0.375 -0.375,0.625 -0.25,0.25 -0.375,0.625 -0.125,0.375 -0.125,0.875 0,0.5 -0.125,0.875 -0.125,0.375 -0.375,0.625 -0.25,0.25 -0.5,0.5 -0.25,0.25 -0.5,0.5 -0.25,0.25 -0.5,0.5 -0.25,0.25 -0.5,0.25 -0.25,0 -0.375,-0.375 -0.125,-0.375 0,-0.75 0.125,-0.375 0.375,-0.625 0.25,-0.25 0.375,-0.625 0.125,-0.375 0.125,-0.875 0,-0.5 0.125,-0.875 0.125,-0.375 0.375,-0.625 0.25,-0.25 0.375,-0.625 0.125,-0.375 0.125,-0.875 0,-0.5 0,-1 0,-0.5 0,-1 0,-0.5 0.125,-0.875 0.125,-0.375 0.375,-0.625 0.25,-0.25 0.5,-0.5"
         id="path14771"
         inkscape:connector-curvature="0" />
      <path
         style="fill:#ffffff;fill-opacity:1"
         d="m 106.54747,169.55342 q 0.25,-0.25 0.625,-0.375 0.375,-0.125 0.875,-0.125 0.5,0 1,0 0.5,0 1,0 0.5,0 1,0 0.5,0 1,0 0.5,0 1,0 0.5,0 0.875,0.125 0.375,0.125 0.625,0.375 0.25,0.25 0.5,0.5 0.25,0.25 0.25,0.5 0,0.25 -0.375,0.375 -0.375,0.125 -0.875,0.125 -0.5,0 -1,0 -0.5,0 -1,0 -0.5,0 -1,0 -0.5,0 -1,0 -0.5,0 -1,0 -0.5,0 -1,0 -0.5,0 -1,0 -0.5,0 -0.875,-0.125 -0.375,-0.125 -0.375,-0.375 0,-0.25 0.25,-0.5 0.25,-0.25 0.5,-0.5"
         id="path14797"
         inkscape:connector-curvature="0" />
    </g>
    <g
       id="g15611">
      <path
         style="fill:#000000;fill-opacity:1"
         d="m 127.67247,151.67842 q 0.125,-0.375 0.5,-0.5 0.375,-0.125 0.75,0 0.375,0.125 0.5,0.5 0.125,0.375 0.25,0.75 0.125,0.375 0.375,0.625 0.25,0.25 0.5,0.5 0.25,0.25 0.5,0.5 0.25,0.25 0.25,0.5 0,0.25 -0.25,0.5 -0.25,0.25 -0.375,0.625 l -0.125,0.375 h 0.5 q 0.5,0 0.875,0.125 0.375,0.125 0.5,0.5 0.125,0.375 0.125,0.875 0,0.5 0.125,0.875 0.125,0.375 0.375,0.625 0.25,0.25 0.375,0.625 0.125,0.375 0,0.75 -0.125,0.375 -0.375,0.375 -0.25,0 -0.5,-0.25 -0.25,-0.25 -0.625,-0.375 -0.375,-0.125 -0.875,-0.125 -0.5,0 -1,0 -0.5,0 -1,0 -0.5,0 -1,0 -0.5,0 -1,0 -0.5,0 -1,0 -0.5,0 -0.875,0.125 -0.375,0.125 -0.625,0.375 -0.25,0.25 -0.5,0.25 -0.25,0 -0.375,-0.375 -0.125,-0.375 0,-0.75 0.125,-0.375 0.375,-0.625 0.25,-0.25 0.375,-0.625 0.125,-0.375 0.125,-0.875 0,-0.5 0.125,-0.875 0.125,-0.375 0.375,-0.625 0.25,-0.25 0.375,-0.625 0.125,-0.375 0.25,-0.75 0.125,-0.375 0.375,-0.625 0.25,-0.25 0.5,-0.5 0.25,-0.25 0.5,-0.5 0.25,-0.25 0.375,-0.625 0.125,-0.375 0.25,-0.75 m 2.875,4.875 v -0.5 h -0.5 -0.5 l 0.125,-0.375 q 0.125,-0.375 0.375,-0.625 0.25,-0.25 0.25,-0.5 0,-0.25 -0.25,-0.5 -0.25,-0.25 -0.5,-0.5 -0.25,-0.25 -0.625,-0.375 -0.375,-0.125 -0.75,0 -0.375,0.125 -0.625,0.375 -0.25,0.25 -0.5,0.5 -0.25,0.25 -0.375,0.625 -0.125,0.375 -0.25,0.75 -0.125,0.375 -0.375,0.625 -0.25,0.25 -0.375,0.625 -0.125,0.375 -0.125,0.875 0,0.5 0.125,0.875 0.125,0.375 0.5,0.5 0.375,0.125 0.875,0.125 0.5,0 1,0 0.5,0 1,0 0.5,0 1,0 0.5,0 0.875,-0.125 0.375,-0.125 0.5,-0.5 0.125,-0.375 0,-0.75 -0.125,-0.375 -0.5,-0.5 l -0.375,-0.125 v -0.5"
         id="path14743"
         inkscape:connector-curvature="0" />
      <path
         style="fill:#ffffff;fill-opacity:1"
         d="m 127.54747,153.55342 q 0.25,-0.25 0.625,-0.375 0.375,-0.125 0.75,0 0.375,0.125 0.625,0.375 0.25,0.25 0.5,0.5 0.25,0.25 0.25,0.5 0,0.25 -0.25,0.5 -0.25,0.25 -0.375,0.625 l -0.125,0.375 -0.375,0.125 q -0.375,0.125 -0.5,0.5 -0.125,0.375 0,0.75 0.125,0.375 0.5,0.5 0.375,0.125 0.75,0 0.375,-0.125 0.5,-0.5 l 0.125,-0.375 0.375,0.125 q 0.375,0.125 0.5,0.5 0.125,0.375 0,0.75 -0.125,0.375 -0.5,0.5 -0.375,0.125 -0.875,0.125 -0.5,0 -1,0 -0.5,0 -1,0 -0.5,0 -1,0 -0.5,0 -0.875,-0.125 -0.375,-0.125 -0.5,-0.5 -0.125,-0.375 -0.125,-0.875 0,-0.5 0.125,-0.875 0.125,-0.375 0.375,-0.625 0.25,-0.25 0.375,-0.625 0.125,-0.375 0.25,-0.75 0.125,-0.375 0.375,-0.625 0.25,-0.25 0.5,-0.5"
         id="path14755"
         inkscape:connector-curvature="0" />
      <path
         style="fill:#000000;fill-opacity:1"
         d="m 129.54747,156.05342 c 0.0815,-0.25886 0.98076,-0.14176 0.98076,-0.14176 -0.0782,0.10286 0.092,0.20698 0.21888,0.33463 l -0.19964,0.80713 c -0.94881,-0.34445 -1.06129,0.38817 -1.33129,0.14752 -0.27,-0.24065 -0.0154,-0.37817 0.0719,-0.63403"
         id="path14767"
         inkscape:connector-curvature="0"
         sodipodi:nodetypes="cccczc" />
      <path
         style="fill:#000000;fill-opacity:1"
         d="m 124.79747,161.55342 q 0,-0.25 0.375,-0.375 0.375,-0.125 0.875,-0.125 0.5,0 1,0 0.5,0 1,0 0.5,0 1,0 0.5,0 1,0 0.5,0 1,0 0.5,0 0.875,0.125 0.375,0.125 0.375,0.375 0,0.25 -0.375,0.375 -0.375,0.125 -0.75,0.25 -0.375,0.125 -0.5,0.5 -0.125,0.375 -0.125,0.875 0,0.5 0.125,0.875 0.125,0.375 0.375,0.625 0.25,0.25 0.375,0.625 0.125,0.375 0.25,0.75 0.125,0.375 0.375,0.625 0.25,0.25 0.375,0.625 0.125,0.375 0.25,0.75 0.125,0.375 0.375,0.625 0.25,0.25 0.5,0.5 0.25,0.25 0.5,0.5 0.25,0.25 0.375,0.625 0.125,0.375 0,0.75 -0.125,0.375 -0.5,0.5 -0.375,0.125 -0.875,0.125 -0.5,0 -1,0 -0.5,0 -1,0 -0.5,0 -1,0 -0.5,0 -1,0 -0.5,0 -1,0 -0.5,0 -1,0 -0.5,0 -1,0 -0.5,0 -1,0 -0.5,0 -1,0 -0.5,0 -0.875,-0.125 -0.375,-0.125 -0.5,-0.5 -0.125,-0.375 0,-0.75 0.125,-0.375 0.375,-0.625 0.25,-0.25 0.5,-0.5 0.25,-0.25 0.5,-0.5 0.25,-0.25 0.375,-0.625 0.125,-0.375 0.25,-0.75 0.125,-0.375 0.375,-0.625 0.25,-0.25 0.375,-0.625 0.125,-0.375 0.25,-0.75 0.125,-0.375 0.375,-0.625 0.25,-0.25 0.375,-0.625 0.125,-0.375 0.125,-0.875 0,-0.5 -0.125,-0.875 -0.125,-0.375 -0.5,-0.5 -0.375,-0.125 -0.75,-0.25 -0.375,-0.125 -0.375,-0.375 m 7.25,9.5 q 0.5,0 0.875,-0.125 0.375,-0.125 0.375,-0.375 0,-0.25 -0.25,-0.5 -0.25,-0.25 -0.5,-0.5 -0.25,-0.25 -0.625,-0.375 -0.375,-0.125 -0.875,-0.125 -0.5,0 -1,0 -0.5,0 -1,0 -0.5,0 -1,0 -0.5,0 -1,0 -0.5,0 -1,0 -0.5,0 -0.875,0.125 -0.375,0.125 -0.625,0.375 -0.25,0.25 -0.5,0.5 -0.25,0.25 -0.25,0.5 0,0.25 0.375,0.375 0.375,0.125 0.875,0.125 0.5,0 1,0 0.5,0 1,0 0.5,0 1,0 0.5,0 1,0 0.5,0 1,0 0.5,0 1,0 0.5,0 1,0 m -2,-3 q 0.5,0 0.875,-0.125 0.375,-0.125 0.375,-0.375 0,-0.25 -0.25,-0.5 -0.25,-0.25 -0.375,-0.625 -0.125,-0.375 -0.25,-0.75 -0.125,-0.375 -0.375,-0.625 -0.25,-0.25 -0.375,-0.625 -0.125,-0.375 -0.125,-0.875 0,-0.5 -0.125,-0.875 -0.125,-0.375 -0.5,-0.5 -0.375,-0.125 -0.75,0 -0.375,0.125 -0.5,0.5 -0.125,0.375 -0.125,0.875 0,0.5 -0.125,0.875 -0.125,0.375 -0.375,0.625 -0.25,0.25 -0.375,0.625 -0.125,0.375 -0.25,0.75 -0.125,0.375 -0.375,0.625 -0.25,0.25 -0.25,0.5 0,0.25 0.375,0.375 0.375,0.125 0.875,0.125 0.5,0 1,0 0.5,0 1,0 0.5,0 1,0"
         id="path14783"
         inkscape:connector-curvature="0" />
      <path
         style="fill:#ffffff;fill-opacity:1"
         d="m 127.67247,162.67842 q 0.125,-0.375 0.5,-0.5 0.375,-0.125 0.75,0 0.375,0.125 0.5,0.5 0.125,0.375 0.125,0.875 0,0.5 0.125,0.875 0.125,0.375 0.375,0.625 0.25,0.25 0.375,0.625 0.125,0.375 0.25,0.75 0.125,0.375 0.375,0.625 0.25,0.25 0.25,0.5 0,0.25 -0.375,0.375 -0.375,0.125 -0.875,0.125 -0.5,0 -1,0 -0.5,0 -1,0 -0.5,0 -1,0 -0.5,0 -0.875,-0.125 -0.375,-0.125 -0.375,-0.375 0,-0.25 0.25,-0.5 0.25,-0.25 0.375,-0.625 0.125,-0.375 0.25,-0.75 0.125,-0.375 0.375,-0.625 0.25,-0.25 0.375,-0.625 0.125,-0.375 0.125,-0.875 0,-0.5 0.125,-0.875"
         id="path14789"
         inkscape:connector-curvature="0" />
      <path
         style="fill:#ffffff;fill-opacity:1"
         d="m 124.54747,169.55342 q 0.25,-0.25 0.625,-0.375 0.375,-0.125 0.875,-0.125 0.5,0 1,0 0.5,0 1,0 0.5,0 1,0 0.5,0 1,0 0.5,0 1,0 0.5,0 0.875,0.125 0.375,0.125 0.625,0.375 0.25,0.25 0.5,0.5 0.25,0.25 0.25,0.5 0,0.25 -0.375,0.375 -0.375,0.125 -0.875,0.125 -0.5,0 -1,0 -0.5,0 -1,0 -0.5,0 -1,0 -0.5,0 -1,0 -0.5,0 -1,0 -0.5,0 -1,0 -0.5,0 -1,0 -0.5,0 -0.875,-0.125 -0.375,-0.125 -0.375,-0.375 0,-0.25 0.25,-0.5 0.25,-0.25 0.5,-0.5"
         id="path14799"
         inkscape:connector-curvature="0" />
    </g>
    <g
       id="g15400">
      <path
         style="fill:#000000;fill-opacity:1"
         d="m 145.54747,151.55342 q 0.25,-0.25 0.625,-0.375 0.375,-0.125 0.75,0 0.375,0.125 0.625,0.375 0.25,0.25 0.625,0.375 0.375,0.125 0.75,0.25 0.375,0.125 0.625,0.375 0.25,0.25 0.5,0.5 0.25,0.25 0.375,0.625 0.125,0.375 0.125,0.875 0,0.5 -0.125,0.875 -0.125,0.375 -0.375,0.625 -0.25,0.25 -0.375,0.625 -0.125,0.375 0,0.75 0.125,0.375 0.5,0.5 0.375,0.125 0.75,0.25 0.375,0.125 0.5,0.5 0.125,0.375 0,0.75 -0.125,0.375 -0.375,0.375 -0.25,0 -0.5,-0.25 -0.25,-0.25 -0.625,-0.375 -0.375,-0.125 -0.875,-0.125 -0.5,0 -1,0 -0.5,0 -1,0 -0.5,0 -1,0 -0.5,0 -1,0 -0.5,0 -1,0 -0.5,0 -0.875,0.125 -0.375,0.125 -0.625,0.375 -0.25,0.25 -0.5,0.25 -0.25,0 -0.375,-0.375 -0.125,-0.375 0,-0.75 0.125,-0.375 0.5,-0.5 0.375,-0.125 0.75,-0.25 0.375,-0.125 0.5,-0.5 0.125,-0.375 0,-0.75 -0.125,-0.375 -0.375,-0.625 -0.25,-0.25 -0.375,-0.625 -0.125,-0.375 -0.125,-0.875 0,-0.5 0.125,-0.875 0.125,-0.375 0.375,-0.625 0.25,-0.25 0.5,-0.5 0.25,-0.25 0.625,-0.375 0.375,-0.125 0.75,-0.25 0.375,-0.125 0.625,-0.375 m 1.5,6.5 q 0.5,0 0.875,-0.125 0.375,-0.125 0.5,-0.5 0.125,-0.375 0.25,-0.75 0.125,-0.375 0.375,-0.625 0.25,-0.25 0.375,-0.625 0.125,-0.375 0.125,-0.875 0,-0.5 -0.125,-0.875 -0.125,-0.375 -0.5,-0.5 -0.375,-0.125 -0.75,0 -0.375,0.125 -0.625,0.375 -0.25,0.25 -0.625,0.375 -0.375,0.125 -0.75,0 -0.375,-0.125 -0.625,-0.375 -0.25,-0.25 -0.625,-0.375 -0.375,-0.125 -0.75,0 -0.375,0.125 -0.5,0.5 -0.125,0.375 -0.125,0.875 0,0.5 0.125,0.875 0.125,0.375 0.375,0.625 0.25,0.25 0.375,0.625 0.125,0.375 0.25,0.75 0.125,0.375 0.5,0.5 0.375,0.125 0.875,0.125 0.5,0 1,0 m -0.875,-5.125 q 0.375,0.125 0.75,0 0.375,-0.125 0.375,-0.375 0,-0.25 -0.375,-0.375 -0.375,-0.125 -0.75,0 -0.375,0.125 -0.375,0.375 0,0.25 0.375,0.375"
         id="path14745"
         inkscape:connector-curvature="0" />
      <path
         style="fill:#ffffff;fill-opacity:1"
         d="m 145.79747,152.55342 q 0,-0.25 0.375,-0.375 0.375,-0.125 0.75,0 0.375,0.125 0.375,0.375 0,0.25 -0.375,0.375 -0.375,0.125 -0.75,0 -0.375,-0.125 -0.375,-0.375"
         id="path14749"
         inkscape:connector-curvature="0" />
      <path
         style="fill:#ffffff;fill-opacity:1"
         d="m 143.67247,153.67842 q 0.125,-0.375 0.5,-0.5 0.375,-0.125 0.75,0 0.375,0.125 0.625,0.375 0.25,0.25 0.625,0.375 0.375,0.125 0.75,0 0.375,-0.125 0.625,-0.375 0.25,-0.25 0.625,-0.375 0.375,-0.125 0.75,0 0.375,0.125 0.5,0.5 0.125,0.375 0.125,0.875 0,0.5 -0.125,0.875 -0.125,0.375 -0.375,0.625 -0.25,0.25 -0.375,0.625 -0.125,0.375 -0.25,0.75 -0.125,0.375 -0.5,0.5 -0.375,0.125 -0.875,0.125 -0.5,0 -1,0 -0.5,0 -0.875,-0.125 -0.375,-0.125 -0.5,-0.5 -0.125,-0.375 -0.25,-0.75 -0.125,-0.375 -0.375,-0.625 -0.25,-0.25 -0.375,-0.625 -0.125,-0.375 -0.125,-0.875 0,-0.5 0.125,-0.875"
         id="path14757"
         inkscape:connector-curvature="0" />
      <path
         style="fill:#000000;fill-opacity:1"
         d="m 142.79747,160.55342 q 0,-0.25 0.375,-0.375 0.375,-0.125 0.875,-0.125 0.5,0 1,0 0.5,0 1,0 0.5,0 1,0 0.5,0 1,0 0.5,0 1,0 0.5,0 0.875,0.125 0.375,0.125 0.375,0.375 0,0.25 -0.375,0.375 -0.375,0.125 -0.75,0.25 -0.375,0.125 -0.5,0.5 -0.125,0.375 0,0.75 0.125,0.375 0.375,0.625 0.25,0.25 0.375,0.625 0.125,0.375 0.125,0.875 0,0.5 0.125,0.875 0.125,0.375 0.375,0.625 0.25,0.25 0.375,0.625 0.125,0.375 0.125,0.875 0,0.5 0.125,0.875 0.125,0.375 0.375,0.625 0.25,0.25 0.5,0.5 0.25,0.25 0.5,0.5 0.25,0.25 0.375,0.625 0.125,0.375 0,0.75 -0.125,0.375 -0.5,0.5 -0.375,0.125 -0.875,0.125 -0.5,0 -1,0 -0.5,0 -1,0 -0.5,0 -1,0 -0.5,0 -1,0 -0.5,0 -1,0 -0.5,0 -1,0 -0.5,0 -1,0 -0.5,0 -1,0 -0.5,0 -1,0 -0.5,0 -0.875,-0.125 -0.375,-0.125 -0.5,-0.5 -0.125,-0.375 0,-0.75 0.125,-0.375 0.375,-0.625 0.25,-0.25 0.5,-0.5 0.25,-0.25 0.5,-0.5 0.25,-0.25 0.375,-0.625 0.125,-0.375 0.125,-0.875 0,-0.5 0.125,-0.875 0.125,-0.375 0.375,-0.625 0.25,-0.25 0.375,-0.625 0.125,-0.375 0.125,-0.875 0,-0.5 0.125,-0.875 0.125,-0.375 0.375,-0.625 0.25,-0.25 0.375,-0.625 0.125,-0.375 0,-0.75 -0.125,-0.375 -0.5,-0.5 -0.375,-0.125 -0.75,-0.25 -0.375,-0.125 -0.375,-0.375 m 7.25,10.5 q 0.5,0 0.875,-0.125 0.375,-0.125 0.375,-0.375 0,-0.25 -0.25,-0.5 -0.25,-0.25 -0.5,-0.5 -0.25,-0.25 -0.625,-0.375 -0.375,-0.125 -0.875,-0.125 -0.5,0 -1,0 -0.5,0 -1,0 -0.5,0 -1,0 -0.5,0 -1,0 -0.5,0 -1,0 -0.5,0 -0.875,0.125 -0.375,0.125 -0.625,0.375 -0.25,0.25 -0.5,0.5 -0.25,0.25 -0.25,0.5 0,0.25 0.375,0.375 0.375,0.125 0.875,0.125 0.5,0 1,0 0.5,0 1,0 0.5,0 1,0 0.5,0 1,0 0.5,0 1,0 0.5,0 1,0 0.5,0 1,0 m -2,-3 q 0.5,0 0.875,-0.125 0.375,-0.125 0.5,-0.5 0.125,-0.375 0,-0.75 -0.125,-0.375 -0.375,-0.625 -0.25,-0.25 -0.375,-0.625 -0.125,-0.375 -0.125,-0.875 0,-0.5 -0.125,-0.875 -0.125,-0.375 -0.375,-0.625 -0.25,-0.25 -0.375,-0.625 -0.125,-0.375 -0.25,-0.75 -0.125,-0.375 -0.5,-0.5 -0.375,-0.125 -0.75,0 -0.375,0.125 -0.5,0.5 -0.125,0.375 -0.25,0.75 -0.125,0.375 -0.375,0.625 -0.25,0.25 -0.375,0.625 -0.125,0.375 -0.125,0.875 0,0.5 -0.125,0.875 -0.125,0.375 -0.375,0.625 -0.25,0.25 -0.375,0.625 -0.125,0.375 0,0.75 0.125,0.375 0.5,0.5 0.375,0.125 0.875,0.125 0.5,0 1,0 0.5,0 1,0 0.5,0 1,0"
         id="path14777"
         inkscape:connector-curvature="0" />
      <path
         style="fill:#ffffff;fill-opacity:1"
         d="m 145.67247,161.67842 q 0.125,-0.375 0.5,-0.5 0.375,-0.125 0.75,0 0.375,0.125 0.5,0.5 0.125,0.375 0.25,0.75 0.125,0.375 0.375,0.625 0.25,0.25 0.375,0.625 0.125,0.375 0.125,0.875 0,0.5 0.125,0.875 0.125,0.375 0.375,0.625 0.25,0.25 0.375,0.625 0.125,0.375 0,0.75 -0.125,0.375 -0.5,0.5 -0.375,0.125 -0.875,0.125 -0.5,0 -1,0 -0.5,0 -1,0 -0.5,0 -1,0 -0.5,0 -0.875,-0.125 -0.375,-0.125 -0.5,-0.5 -0.125,-0.375 0,-0.75 0.125,-0.375 0.375,-0.625 0.25,-0.25 0.375,-0.625 0.125,-0.375 0.125,-0.875 0,-0.5 0.125,-0.875 0.125,-0.375 0.375,-0.625 0.25,-0.25 0.375,-0.625 0.125,-0.375 0.25,-0.75"
         id="path14785"
         inkscape:connector-curvature="0" />
      <path
         style="fill:#ffffff;fill-opacity:1"
         d="m 142.54747,169.55342 q 0.25,-0.25 0.625,-0.375 0.375,-0.125 0.875,-0.125 0.5,0 1,0 0.5,0 1,0 0.5,0 1,0 0.5,0 1,0 0.5,0 1,0 0.5,0 0.875,0.125 0.375,0.125 0.625,0.375 0.25,0.25 0.5,0.5 0.25,0.25 0.25,0.5 0,0.25 -0.375,0.375 -0.375,0.125 -0.875,0.125 -0.5,0 -1,0 -0.5,0 -1,0 -0.5,0 -1,0 -0.5,0 -1,0 -0.5,0 -1,0 -0.5,0 -1,0 -0.5,0 -1,0 -0.5,0 -0.875,-0.125 -0.375,-0.125 -0.375,-0.375 0,-0.25 0.25,-0.5 0.25,-0.25 0.5,-0.5"
         id="path14801"
         inkscape:connector-curvature="0" />
    </g>
    <g
       id="g15407">
      <path
         style="fill:#000000;fill-opacity:1"
         d="m 163.54747,149.55342 q 0.25,-0.25 0.5,-0.25 0.25,0 0.5,0.25 0.25,0.25 0.5,0.5 0.25,0.25 0.25,0.5 0,0.25 -0.25,0.5 -0.25,0.25 -0.25,0.5 0,0.25 0.25,0.5 0.25,0.25 0.5,0.5 0.25,0.25 0.5,0.5 0.25,0.25 0.5,0.5 0.25,0.25 0.5,0.5 0.25,0.25 0.375,0.625 0.125,0.375 0.125,0.875 0,0.5 0,1 0,0.5 0.125,0.875 0.125,0.375 0.5,0.5 0.375,0.125 0.75,0.25 0.375,0.125 0.5,0.5 0.125,0.375 0,0.75 -0.125,0.375 -0.375,0.375 -0.25,0 -0.5,-0.25 -0.25,-0.25 -0.625,-0.375 -0.375,-0.125 -0.875,-0.125 -0.5,0 -1,0 -0.5,0 -1,0 -0.5,0 -1,0 -0.5,0 -1,0 -0.5,0 -1,0 -0.5,0 -1,0 -0.5,0 -0.875,0.125 -0.375,0.125 -0.625,0.375 -0.25,0.25 -0.5,0.25 -0.25,0 -0.375,-0.375 -0.125,-0.375 0,-0.75 0.125,-0.375 0.5,-0.5 0.375,-0.125 0.75,-0.25 0.375,-0.125 0.5,-0.5 0.125,-0.375 0.125,-0.875 0,-0.5 0,-1 0,-0.5 0.125,-0.875 0.125,-0.375 0.375,-0.625 0.25,-0.25 0.5,-0.5 0.25,-0.25 0.5,-0.5 0.25,-0.25 0.5,-0.5 0.25,-0.25 0.5,-0.5 0.25,-0.25 0.25,-0.5 0,-0.25 -0.25,-0.5 -0.25,-0.25 -0.25,-0.5 0,-0.25 0.25,-0.5 0.25,-0.25 0.5,-0.5 m 1.5,8.5 q 0.5,0 0.875,-0.125 0.375,-0.125 0.5,-0.5 0.125,-0.375 0.125,-0.875 0,-0.5 0,-1 0,-0.5 -0.125,-0.875 -0.125,-0.375 -0.375,-0.625 -0.25,-0.25 -0.5,-0.5 -0.25,-0.25 -0.625,-0.375 -0.375,-0.125 -0.875,-0.125 -0.5,0 -0.875,0.125 -0.375,0.125 -0.625,0.375 -0.25,0.25 -0.5,0.5 -0.25,0.25 -0.375,0.625 -0.125,0.375 -0.125,0.875 0,0.5 0,1 0,0.5 0.125,0.875 0.125,0.375 0.5,0.5 0.375,0.125 0.875,0.125 0.5,0 1,0 0.5,0 1,0"
         id="path14741"
         inkscape:connector-curvature="0" />
      <path
         style="fill:#ffffff;fill-opacity:1"
         d="m 162.54747,153.55342 q 0.25,-0.25 0.625,-0.375 0.375,-0.125 0.875,-0.125 0.5,0 0.875,0.125 0.375,0.125 0.625,0.375 0.25,0.25 0.5,0.5 0.25,0.25 0.375,0.625 0.125,0.375 0.125,0.875 0,0.5 0,1 0,0.5 -0.125,0.875 -0.125,0.375 -0.5,0.5 -0.375,0.125 -0.875,0.125 -0.5,0 -1,0 -0.5,0 -1,0 -0.5,0 -0.875,-0.125 -0.375,-0.125 -0.5,-0.5 -0.125,-0.375 -0.125,-0.875 0,-0.5 0,-1 0,-0.5 0.125,-0.875 0.125,-0.375 0.375,-0.625 0.25,-0.25 0.5,-0.5"
         id="path14759"
         inkscape:connector-curvature="0" />
      <path
         style="fill:#000000;fill-opacity:1"
         d="m 159.79747,160.55342 q 0,-0.25 0.375,-0.375 0.375,-0.125 0.875,-0.125 0.5,0 1,0 0.5,0 1,0 0.5,0 1,0 0.5,0 1,0 0.5,0 1,0 0.5,0 1,0 0.5,0 0.875,0.125 0.375,0.125 0.375,0.375 0,0.25 -0.375,0.375 -0.375,0.125 -0.75,0.25 -0.375,0.125 -0.5,0.5 -0.125,0.375 0,0.75 0.125,0.375 0.375,0.625 0.25,0.25 0.375,0.625 0.125,0.375 0.125,0.875 0,0.5 0.125,0.875 0.125,0.375 0.375,0.625 0.25,0.25 0.375,0.625 0.125,0.375 0.125,0.875 0,0.5 0.125,0.875 0.125,0.375 0.375,0.625 0.25,0.25 0.5,0.5 0.25,0.25 0.5,0.5 0.25,0.25 0.375,0.625 0.125,0.375 0,0.75 -0.125,0.375 -0.5,0.5 -0.375,0.125 -0.875,0.125 -0.5,0 -1,0 -0.5,0 -1,0 -0.5,0 -1,0 -0.5,0 -1,0 -0.5,0 -1,0 -0.5,0 -1,0 -0.5,0 -1,0 -0.5,0 -1,0 -0.5,0 -1,0 -0.5,0 -1,0 -0.5,0 -0.875,-0.125 -0.375,-0.125 -0.5,-0.5 -0.125,-0.375 0,-0.75 0.125,-0.375 0.375,-0.625 0.25,-0.25 0.5,-0.5 0.25,-0.25 0.5,-0.5 0.25,-0.25 0.375,-0.625 0.125,-0.375 0.125,-0.875 0,-0.5 0.125,-0.875 0.125,-0.375 0.375,-0.625 0.25,-0.25 0.375,-0.625 0.125,-0.375 0.125,-0.875 0,-0.5 0.125,-0.875 0.125,-0.375 0.375,-0.625 0.25,-0.25 0.375,-0.625 0.125,-0.375 0,-0.75 -0.125,-0.375 -0.5,-0.5 -0.375,-0.125 -0.75,-0.25 -0.375,-0.125 -0.375,-0.375 m 8.25,10.5 q 0.5,0 0.875,-0.125 0.375,-0.125 0.375,-0.375 0,-0.25 -0.25,-0.5 -0.25,-0.25 -0.5,-0.5 -0.25,-0.25 -0.625,-0.375 -0.375,-0.125 -0.875,-0.125 -0.5,0 -1,0 -0.5,0 -1,0 -0.5,0 -1,0 -0.5,0 -1,0 -0.5,0 -1,0 -0.5,0 -1,0 -0.5,0 -0.875,0.125 -0.375,0.125 -0.625,0.375 -0.25,0.25 -0.5,0.5 -0.25,0.25 -0.25,0.5 0,0.25 0.375,0.375 0.375,0.125 0.875,0.125 0.5,0 1,0 0.5,0 1,0 0.5,0 1,0 0.5,0 1,0 0.5,0 1,0 0.5,0 1,0 0.5,0 1,0 0.5,0 1,0 m -2,-3 q 0.5,0 0.875,-0.125 0.375,-0.125 0.5,-0.5 0.125,-0.375 0,-0.75 -0.125,-0.375 -0.375,-0.625 -0.25,-0.25 -0.375,-0.625 -0.125,-0.375 -0.125,-0.875 0,-0.5 -0.125,-0.875 -0.125,-0.375 -0.375,-0.625 -0.25,-0.25 -0.375,-0.625 -0.125,-0.375 -0.25,-0.75 -0.125,-0.375 -0.5,-0.5 -0.375,-0.125 -0.875,-0.125 -0.5,0 -0.875,0.125 -0.375,0.125 -0.5,0.5 -0.125,0.375 -0.25,0.75 -0.125,0.375 -0.375,0.625 -0.25,0.25 -0.375,0.625 -0.125,0.375 -0.125,0.875 0,0.5 -0.125,0.875 -0.125,0.375 -0.375,0.625 -0.25,0.25 -0.375,0.625 -0.125,0.375 0,0.75 0.125,0.375 0.5,0.5 0.375,0.125 0.875,0.125 0.5,0 1,0 0.5,0 1,0 0.5,0 1,0 0.5,0 1,0"
         id="path14779"
         inkscape:connector-curvature="0" />
      <path
         style="fill:#ffffff;fill-opacity:1"
         d="m 162.67247,161.67842 q 0.125,-0.375 0.5,-0.5 0.375,-0.125 0.875,-0.125 0.5,0 0.875,0.125 0.375,0.125 0.5,0.5 0.125,0.375 0.25,0.75 0.125,0.375 0.375,0.625 0.25,0.25 0.375,0.625 0.125,0.375 0.125,0.875 0,0.5 0.125,0.875 0.125,0.375 0.375,0.625 0.25,0.25 0.375,0.625 0.125,0.375 0,0.75 -0.125,0.375 -0.5,0.5 -0.375,0.125 -0.875,0.125 -0.5,0 -1,0 -0.5,0 -1,0 -0.5,0 -1,0 -0.5,0 -1,0 -0.5,0 -0.875,-0.125 -0.375,-0.125 -0.5,-0.5 -0.125,-0.375 0,-0.75 0.125,-0.375 0.375,-0.625 0.25,-0.25 0.375,-0.625 0.125,-0.375 0.125,-0.875 0,-0.5 0.125,-0.875 0.125,-0.375 0.375,-0.625 0.25,-0.25 0.375,-0.625 0.125,-0.375 0.25,-0.75"
         id="path14787"
         inkscape:connector-curvature="0" />
      <path
         style="fill:#ffffff;fill-opacity:1"
         d="m 159.54747,169.55342 q 0.25,-0.25 0.625,-0.375 0.375,-0.125 0.875,-0.125 0.5,0 1,0 0.5,0 1,0 0.5,0 1,0 0.5,0 1,0 0.5,0 1,0 0.5,0 1,0 0.5,0 0.875,0.125 0.375,0.125 0.625,0.375 0.25,0.25 0.5,0.5 0.25,0.25 0.25,0.5 0,0.25 -0.375,0.375 -0.375,0.125 -0.875,0.125 -0.5,0 -1,0 -0.5,0 -1,0 -0.5,0 -1,0 -0.5,0 -1,0 -0.5,0 -1,0 -0.5,0 -1,0 -0.5,0 -1,0 -0.5,0 -1,0 -0.5,0 -0.875,-0.125 -0.375,-0.125 -0.375,-0.375 0,-0.25 0.25,-0.5 0.25,-0.25 0.5,-0.5"
         id="path14803"
         inkscape:connector-curvature="0" />
    </g>
    <g
       id="g15434">
      <path
         style="fill:#000000;fill-opacity:1"
         d="m 74.54747,180.55342 q 0.25,-0.25 0.625,-0.375 0.375,-0.125 0.75,0 0.375,0.125 0.625,0.375 0.25,0.25 0.5,0.5 0.25,0.25 0.375,0.625 0.125,0.375 0.25,0.75 0.125,0.375 0.5,0.5 0.375,0.125 0.75,0.25 0.375,0.125 0.5,0.5 0.125,0.375 0,0.75 -0.125,0.375 -0.375,0.625 -0.25,0.25 -0.5,0.5 -0.25,0.25 -0.5,0.5 -0.25,0.25 -0.375,0.625 -0.125,0.375 -0.125,0.875 0,0.5 0.125,0.875 0.125,0.375 0.375,0.625 0.25,0.25 0.375,0.625 0.125,0.375 0.25,0.75 0.125,0.375 0.375,0.625 0.25,0.25 0.5,0.5 0.25,0.25 0.5,0.5 0.25,0.25 0.5,0.5 0.25,0.25 0.5,0.5 0.25,0.25 0.375,0.625 0.125,0.375 0.125,0.875 0,0.5 -0.125,0.875 -0.125,0.375 -0.5,0.5 -0.375,0.125 -0.875,0.125 -0.5,0 -1,0 -0.5,0 -1,0 -0.5,0 -1,0 -0.5,0 -1,0 -0.5,0 -1,0 -0.5,0 -1,0 -0.5,0 -1,0 -0.5,0 -1,0 -0.5,0 -1,0 -0.5,0 -0.875,-0.125 -0.375,-0.125 -0.5,-0.5 -0.125,-0.375 -0.125,-0.875 0,-0.5 0.125,-0.875 0.125,-0.375 0.375,-0.625 0.25,-0.25 0.5,-0.5 0.25,-0.25 0.5,-0.5 0.25,-0.25 0.5,-0.5 0.25,-0.25 0.5,-0.5 0.25,-0.25 0.375,-0.625 0.125,-0.375 0.25,-0.75 0.125,-0.375 0.375,-0.625 0.25,-0.25 0.375,-0.625 0.125,-0.375 0.125,-0.875 0,-0.5 -0.125,-0.875 -0.125,-0.375 -0.375,-0.625 -0.25,-0.25 -0.5,-0.5 -0.25,-0.25 -0.5,-0.5 -0.25,-0.25 -0.375,-0.625 -0.125,-0.375 0,-0.75 0.125,-0.375 0.5,-0.5 0.375,-0.125 0.75,-0.25 0.375,-0.125 0.5,-0.5 0.125,-0.375 0.25,-0.75 0.125,-0.375 0.375,-0.625 0.25,-0.25 0.5,-0.5"
         id="path14821"
         inkscape:connector-curvature="0" />
    </g>
    <g
       id="g15427">
      <path
         style="fill:#000000;fill-opacity:1"
         d="m 111.54747,176.55342 q 0.25,-0.25 0.5,-0.25 0.25,0 0.5,0.25 0.25,0.25 0.5,0.5 0.25,0.25 0.5,0.5 0.25,0.25 0.5,0.5 0.25,0.25 0.375,0.625 0.125,0.375 0.25,0.75 0.125,0.375 0.375,0.625 0.25,0.25 0.5,0.5 0.25,0.25 0.5,0.5 0.25,0.25 0.375,0.625 0.125,0.375 0.125,0.875 0,0.5 0,1 0,0.5 0,1 0,0.5 0,1 0,0.5 -0.125,0.875 -0.125,0.375 -0.375,0.625 -0.25,0.25 -0.375,0.625 -0.125,0.375 -0.125,0.875 0,0.5 -0.125,0.875 -0.125,0.375 -0.375,0.625 -0.25,0.25 -0.5,0.5 -0.25,0.25 -0.5,0.5 -0.25,0.25 -0.25,0.5 0,0.25 0.25,0.5 0.25,0.25 0.5,0.5 0.25,0.25 0.5,0.5 0.25,0.25 0.5,0.5 0.25,0.25 0.5,0.5 0.25,0.25 0.375,0.625 0.125,0.375 0,0.75 -0.125,0.375 -0.5,0.5 -0.375,0.125 -0.875,0.125 -0.5,0 -1,0 -0.5,0 -1,0 -0.5,0 -1,0 -0.5,0 -1,0 -0.5,0 -1,0 -0.5,0 -1,0 -0.5,0 -1,0 -0.5,0 -1,0 -0.5,0 -1,0 -0.5,0 -0.875,-0.125 -0.375,-0.125 -0.5,-0.5 -0.125,-0.375 0,-0.75 0.125,-0.375 0.375,-0.625 0.25,-0.25 0.5,-0.5 0.25,-0.25 0.5,-0.5 0.25,-0.25 0.5,-0.5 0.25,-0.25 0.5,-0.5 0.25,-0.25 0.375,-0.625 0.125,-0.375 0.125,-0.875 0,-0.5 0,-1 0,-0.5 0.125,-0.875 0.125,-0.375 0.375,-0.625 0.25,-0.25 0.375,-0.625 0.125,-0.375 0.125,-0.875 0,-0.5 -0.125,-0.875 -0.125,-0.375 -0.5,-0.5 -0.375,-0.125 -0.875,-0.125 -0.5,0 -0.875,-0.125 -0.375,-0.125 -0.625,-0.375 -0.25,-0.25 -0.5,-0.5 -0.25,-0.25 -0.375,-0.625 -0.125,-0.375 0,-0.75 0.125,-0.375 0.375,-0.625 0.25,-0.25 0.5,-0.5 0.25,-0.25 0.5,-0.5 0.25,-0.25 0.5,-0.5 0.25,-0.25 0.5,-0.5 0.25,-0.25 0.5,-0.5 0.25,-0.25 0.5,-0.5 0.25,-0.25 0.375,-0.625 0.125,-0.375 0.25,-0.75 0.125,-0.375 0.5,-0.5 0.375,-0.125 0.875,-0.125 0.5,0 0.875,-0.125 0.375,-0.125 0.625,-0.375 m -1.75,4 q 0,0.25 0.25,0.25 0.25,0 0.25,-0.25 0,-0.25 -0.25,-0.25 -0.25,0 -0.25,0.25 m 1.875,-2.125 q 0.125,0.375 0.375,0.375 0.25,0 0.375,-0.375 0.125,-0.375 0,-0.75 -0.125,-0.375 -0.375,-0.375 -0.25,0 -0.375,0.375 -0.125,0.375 0,0.75 m 0,13 q 0.125,0.375 0.375,0.375 0.25,0 0.5,-0.25 0.25,-0.25 0.5,-0.5 0.25,-0.25 0.5,-0.5 0.25,-0.25 0.5,-0.5 0.25,-0.25 0.375,-0.625 0.125,-0.375 0.125,-0.875 0,-0.5 0.125,-0.875 0.125,-0.375 0.375,-0.625 0.25,-0.25 0.375,-0.625 0.125,-0.375 0.125,-0.875 0,-0.5 0,-1 0,-0.5 0,-1 0,-0.5 0,-1 0,-0.5 -0.125,-0.875 -0.125,-0.375 -0.375,-0.375 -0.25,0 -0.5,0.25 -0.25,0.25 -0.5,0.5 -0.25,0.25 -0.375,0.625 -0.125,0.375 -0.125,0.875 0,0.5 0,1 0,0.5 0,1 0,0.5 -0.125,0.875 -0.125,0.375 -0.375,0.625 -0.25,0.25 -0.375,0.625 -0.125,0.375 -0.125,0.875 0,0.5 -0.125,0.875 -0.125,0.375 -0.375,0.625 -0.25,0.25 -0.375,0.625 -0.125,0.375 0,0.75"
         id="path14811"
         inkscape:connector-curvature="0" />
      <path
         style="fill:#ffffff;fill-opacity:1"
         d="m 111.67247,177.67842 q 0.125,-0.375 0.375,-0.375 0.25,0 0.375,0.375 0.125,0.375 0,0.75 -0.125,0.375 -0.375,0.375 -0.25,0 -0.375,-0.375 -0.125,-0.375 0,-0.75"
         id="path14819"
         inkscape:connector-curvature="0" />
      <path
         style="fill:#ffffff;fill-opacity:1"
         d="m 109.79747,180.55342 q 0,-0.25 0.25,-0.25 0.25,0 0.25,0.25 0,0.25 -0.25,0.25 -0.25,0 -0.25,-0.25"
         id="path14823"
         inkscape:connector-curvature="0" />
      <path
         style="fill:#ffffff;fill-opacity:1"
         d="m 114.54747,181.55342 q 0.25,-0.25 0.5,-0.25 0.25,0 0.375,0.375 0.125,0.375 0.125,0.875 0,0.5 0,1 0,0.5 0,1 0,0.5 0,1 0,0.5 -0.125,0.875 -0.125,0.375 -0.375,0.625 -0.25,0.25 -0.375,0.625 -0.125,0.375 -0.125,0.875 0,0.5 -0.125,0.875 -0.125,0.375 -0.375,0.625 -0.25,0.25 -0.5,0.5 -0.25,0.25 -0.5,0.5 -0.25,0.25 -0.5,0.5 -0.25,0.25 -0.5,0.25 -0.25,0 -0.375,-0.375 -0.125,-0.375 0,-0.75 0.125,-0.375 0.375,-0.625 0.25,-0.25 0.375,-0.625 0.125,-0.375 0.125,-0.875 0,-0.5 0.125,-0.875 0.125,-0.375 0.375,-0.625 0.25,-0.25 0.375,-0.625 0.125,-0.375 0.125,-0.875 0,-0.5 0,-1 0,-0.5 0,-1 0,-0.5 0.125,-0.875 0.125,-0.375 0.375,-0.625 0.25,-0.25 0.5,-0.5"
         id="path14825"
         inkscape:connector-curvature="0" />
    </g>
    <g
       id="g15411">
      <path
         style="fill:#000000;fill-opacity:1"
         d="m 163.54747,173.55342 q 0.25,-0.25 0.5,-0.25 0.25,0 0.5,0.25 0.25,0.25 0.5,0.5 0.25,0.25 0.25,0.5 0,0.25 -0.25,0.5 -0.25,0.25 -0.25,0.5 0,0.25 0.25,0.5 0.25,0.25 0.5,0.5 0.25,0.25 0.5,0.5 0.25,0.25 0.5,0.5 0.25,0.25 0.5,0.5 0.25,0.25 0.375,0.625 0.125,0.375 0.125,0.875 0,0.5 0,1 0,0.5 0.125,0.875 0.125,0.375 0.5,0.5 0.375,0.125 0.75,0.25 0.375,0.125 0.5,0.5 0.125,0.375 0,0.75 -0.125,0.375 -0.375,0.375 -0.25,0 -0.5,-0.25 -0.25,-0.25 -0.625,-0.375 -0.375,-0.125 -0.875,-0.125 -0.5,0 -1,0 -0.5,0 -1,0 -0.5,0 -1,0 -0.5,0 -1,0 -0.5,0 -1,0 -0.5,0 -1,0 -0.5,0 -0.875,0.125 -0.375,0.125 -0.625,0.375 -0.25,0.25 -0.5,0.25 -0.25,0 -0.375,-0.375 -0.125,-0.375 0,-0.75 0.125,-0.375 0.5,-0.5 0.375,-0.125 0.75,-0.25 0.375,-0.125 0.5,-0.5 0.125,-0.375 0.125,-0.875 0,-0.5 0,-1 0,-0.5 0.125,-0.875 0.125,-0.375 0.375,-0.625 0.25,-0.25 0.5,-0.5 0.25,-0.25 0.5,-0.5 0.25,-0.25 0.5,-0.5 0.25,-0.25 0.5,-0.5 0.25,-0.25 0.25,-0.5 0,-0.25 -0.25,-0.5 -0.25,-0.25 -0.25,-0.5 0,-0.25 0.25,-0.5 0.25,-0.25 0.5,-0.5"
         id="path14805"
         inkscape:connector-curvature="0" />
      <path
         style="fill:#000000;fill-opacity:1"
         d="m 159.79747,184.55342 q 0,-0.25 0.375,-0.375 0.375,-0.125 0.875,-0.125 0.5,0 1,0 0.5,0 1,0 0.5,0 1,0 0.5,0 1,0 0.5,0 1,0 0.5,0 1,0 0.5,0 0.875,0.125 0.375,0.125 0.375,0.375 0,0.25 -0.375,0.375 -0.375,0.125 -0.75,0.25 -0.375,0.125 -0.5,0.5 -0.125,0.375 0,0.75 0.125,0.375 0.375,0.625 0.25,0.25 0.375,0.625 0.125,0.375 0.125,0.875 0,0.5 0.125,0.875 0.125,0.375 0.375,0.625 0.25,0.25 0.375,0.625 0.125,0.375 0.125,0.875 0,0.5 0.125,0.875 0.125,0.375 0.375,0.625 0.25,0.25 0.5,0.5 0.25,0.25 0.5,0.5 0.25,0.25 0.375,0.625 0.125,0.375 0,0.75 -0.125,0.375 -0.5,0.5 -0.375,0.125 -0.875,0.125 -0.5,0 -1,0 -0.5,0 -1,0 -0.5,0 -1,0 -0.5,0 -1,0 -0.5,0 -1,0 -0.5,0 -1,0 -0.5,0 -1,0 -0.5,0 -1,0 -0.5,0 -1,0 -0.5,0 -1,0 -0.5,0 -0.875,-0.125 -0.375,-0.125 -0.5,-0.5 -0.125,-0.375 0,-0.75 0.125,-0.375 0.375,-0.625 0.25,-0.25 0.5,-0.5 0.25,-0.25 0.5,-0.5 0.25,-0.25 0.375,-0.625 0.125,-0.375 0.125,-0.875 0,-0.5 0.125,-0.875 0.125,-0.375 0.375,-0.625 0.25,-0.25 0.375,-0.625 0.125,-0.375 0.125,-0.875 0,-0.5 0.125,-0.875 0.125,-0.375 0.375,-0.625 0.25,-0.25 0.375,-0.625 0.125,-0.375 0,-0.75 -0.125,-0.375 -0.5,-0.5 -0.375,-0.125 -0.75,-0.25 -0.375,-0.125 -0.375,-0.375"
         id="path14829"
         inkscape:connector-curvature="0" />
    </g>
    <g
       id="g15431">
      <path
         style="fill:#000000;fill-opacity:1"
         d="m 88.54747,177.55342 q 0.25,-0.25 0.5,-0.25 0.25,0 0.5,0.25 0.25,0.25 0.5,0.5 0.25,0.25 0.375,0.625 0.125,0.375 0.25,0.75 0.125,0.375 0.375,0.375 0.25,0 0.375,-0.375 0.125,-0.375 0.25,-0.75 0.125,-0.375 0.375,-0.625 0.25,-0.25 0.5,-0.5 0.25,-0.25 0.5,-0.25 0.25,0 0.5,0.25 0.25,0.25 0.5,0.5 0.25,0.25 0.375,0.625 0.125,0.375 0.25,0.75 0.125,0.375 0.375,0.375 0.25,0 0.375,-0.375 0.125,-0.375 0.25,-0.75 0.125,-0.375 0.375,-0.625 0.25,-0.25 0.5,-0.5 0.25,-0.25 0.5,-0.25 0.25,0 0.5,0.25 0.25,0.25 0.5,0.5 0.25,0.25 0.375,0.625 0.125,0.375 0.125,0.875 0,0.5 0,1 0,0.5 -0.125,0.875 -0.125,0.375 -0.375,0.625 -0.25,0.25 -0.5,0.5 -0.25,0.25 -0.5,0.5 -0.25,0.25 -0.375,0.625 -0.125,0.375 -0.125,0.875 0,0.5 0,1 0,0.5 0,1 0,0.5 0,1 0,0.5 0,1 0,0.5 0,1 0,0.5 0,1 0,0.5 0.125,0.875 0.125,0.375 0.375,0.625 0.25,0.25 0.5,0.5 0.25,0.25 0.5,0.5 0.25,0.25 0.5,0.5 0.25,0.25 0.5,0.5 0.25,0.25 0.375,0.625 0.125,0.375 0,0.75 -0.125,0.375 -0.5,0.5 -0.375,0.125 -0.875,0.125 -0.5,0 -1,0 -0.5,0 -1,0 -0.5,0 -1,0 -0.5,0 -1,0 -0.5,0 -1,0 -0.5,0 -1,0 -0.5,0 -1,0 -0.5,0 -1,0 -0.5,0 -1,0 -0.5,0 -1,0 -0.5,0 -0.875,-0.125 -0.375,-0.125 -0.5,-0.5 -0.125,-0.375 0,-0.75 0.125,-0.375 0.375,-0.625 0.25,-0.25 0.5,-0.5 0.25,-0.25 0.5,-0.5 0.25,-0.25 0.5,-0.5 0.25,-0.25 0.5,-0.5 0.25,-0.25 0.375,-0.625 0.125,-0.375 0.125,-0.875 0,-0.5 0,-1 0,-0.5 0,-1 0,-0.5 0,-1 0,-0.5 0,-1 0,-0.5 0,-1 0,-0.5 0,-1 0,-0.5 -0.125,-0.875 -0.125,-0.375 -0.375,-0.625 -0.25,-0.25 -0.5,-0.5 -0.25,-0.25 -0.5,-0.5 -0.25,-0.25 -0.375,-0.625 -0.125,-0.375 -0.125,-0.875 0,-0.5 0,-1 0,-0.5 0.125,-0.875 0.125,-0.375 0.375,-0.625 0.25,-0.25 0.5,-0.5 m 4.125,11.875 q 0.125,0.375 0.375,0.375 0.25,0 0.375,-0.375 0.125,-0.375 0.125,-0.875 0,-0.5 0,-1 0,-0.5 0,-1 0,-0.5 -0.125,-0.875 -0.125,-0.375 -0.375,-0.375 -0.25,0 -0.375,0.375 -0.125,0.375 -0.125,0.875 0,0.5 0,1 0,0.5 0,1 0,0.5 0.125,0.875"
         id="path14817"
         inkscape:connector-curvature="0" />
      <path
         style="fill:#ffffff;fill-opacity:1"
         d="m 92.67247,185.67842 q 0.125,-0.375 0.375,-0.375 0.25,0 0.375,0.375 0.125,0.375 0.125,0.875 0,0.5 0,1 0,0.5 0,1 0,0.5 -0.125,0.875 -0.125,0.375 -0.375,0.375 -0.25,0 -0.375,-0.375 -0.125,-0.375 -0.125,-0.875 0,-0.5 0,-1 0,-0.5 0,-1 0,-0.5 0.125,-0.875"
         id="path14831"
         inkscape:connector-curvature="0" />
    </g>
    <g
       id="g15421">
      <path
         style="fill:#000000;fill-opacity:1"
         d="m 127.67247,175.67842 q 0.125,-0.375 0.5,-0.5 0.375,-0.125 0.75,0 0.375,0.125 0.5,0.5 0.125,0.375 0.25,0.75 0.125,0.375 0.375,0.625 0.25,0.25 0.5,0.5 0.25,0.25 0.5,0.5 0.25,0.25 0.25,0.5 0,0.25 -0.25,0.5 -0.25,0.25 -0.5,0.5 -0.25,0.25 -0.5,0.5 -0.25,0.25 -0.25,0.5 0,0.25 0.25,0.25 0.25,0 0.5,-0.25 0.25,-0.25 0.625,-0.375 0.375,-0.125 0.75,0 0.375,0.125 0.5,0.5 0.125,0.375 0.125,0.875 0,0.5 0.125,0.875 0.125,0.375 0.375,0.625 0.25,0.25 0.375,0.625 0.125,0.375 0,0.75 -0.125,0.375 -0.375,0.375 -0.25,0 -0.5,-0.25 -0.25,-0.25 -0.625,-0.375 -0.375,-0.125 -0.875,-0.125 -0.5,0 -1,0 -0.5,0 -1,0 -0.5,0 -1,0 -0.5,0 -1,0 -0.5,0 -1,0 -0.5,0 -0.875,0.125 -0.375,0.125 -0.625,0.375 -0.25,0.25 -0.5,0.25 -0.25,0 -0.375,-0.375 -0.125,-0.375 0,-0.75 0.125,-0.375 0.375,-0.625 0.25,-0.25 0.375,-0.625 0.125,-0.375 0.125,-0.875 0,-0.5 0.125,-0.875 0.125,-0.375 0.375,-0.625 0.25,-0.25 0.375,-0.625 0.125,-0.375 0.25,-0.75 0.125,-0.375 0.375,-0.625 0.25,-0.25 0.5,-0.5 0.25,-0.25 0.5,-0.5 0.25,-0.25 0.375,-0.625 0.125,-0.375 0.25,-0.75"
         id="path14807"
         inkscape:connector-curvature="0" />
      <path
         style="fill:#000000;fill-opacity:1"
         d="m 124.79747,185.55342 q 0,-0.25 0.375,-0.375 0.375,-0.125 0.875,-0.125 0.5,0 1,0 0.5,0 1,0 0.5,0 1,0 0.5,0 1,0 0.5,0 1,0 0.5,0 0.875,0.125 0.375,0.125 0.375,0.375 0,0.25 -0.375,0.375 -0.375,0.125 -0.75,0.25 -0.375,0.125 -0.5,0.5 -0.125,0.375 -0.125,0.875 0,0.5 0.125,0.875 0.125,0.375 0.375,0.625 0.25,0.25 0.375,0.625 0.125,0.375 0.25,0.75 0.125,0.375 0.375,0.625 0.25,0.25 0.375,0.625 0.125,0.375 0.25,0.75 0.125,0.375 0.375,0.625 0.25,0.25 0.5,0.5 0.25,0.25 0.5,0.5 0.25,0.25 0.375,0.625 0.125,0.375 0,0.75 -0.125,0.375 -0.5,0.5 -0.375,0.125 -0.875,0.125 -0.5,0 -1,0 -0.5,0 -1,0 -0.5,0 -1,0 -0.5,0 -1,0 -0.5,0 -1,0 -0.5,0 -1,0 -0.5,0 -1,0 -0.5,0 -1,0 -0.5,0 -1,0 -0.5,0 -0.875,-0.125 -0.375,-0.125 -0.5,-0.5 -0.125,-0.375 0,-0.75 0.125,-0.375 0.375,-0.625 0.25,-0.25 0.5,-0.5 0.25,-0.25 0.5,-0.5 0.25,-0.25 0.375,-0.625 0.125,-0.375 0.25,-0.75 0.125,-0.375 0.375,-0.625 0.25,-0.25 0.375,-0.625 0.125,-0.375 0.25,-0.75 0.125,-0.375 0.375,-0.625 0.25,-0.25 0.375,-0.625 0.125,-0.375 0.125,-0.875 0,-0.5 -0.125,-0.875 -0.125,-0.375 -0.5,-0.5 -0.375,-0.125 -0.75,-0.25 -0.375,-0.125 -0.375,-0.375"
         id="path14833"
         inkscape:connector-curvature="0" />
    </g>
    <g
       id="g15496"
       transform="translate(0,-22.45064)">
      <path
         inkscape:connector-curvature="0"
         id="path15470"
         d="m 145.54747,198.23348 q 0.25,-0.25 0.625,-0.375 0.375,-0.125 0.75,0 0.375,0.125 0.625,0.375 0.25,0.25 0.625,0.375 0.375,0.125 0.75,0.25 0.375,0.125 0.625,0.375 0.25,0.25 0.5,0.5 0.25,0.25 0.375,0.625 0.125,0.375 0.125,0.875 0,0.5 -0.125,0.875 -0.125,0.375 -0.375,0.625 -0.25,0.25 -0.375,0.625 -0.125,0.375 0,0.75 0.125,0.375 0.5,0.5 0.375,0.125 0.75,0.25 0.375,0.125 0.5,0.5 0.125,0.375 0,0.75 -0.125,0.375 -0.375,0.375 -0.25,0 -0.5,-0.25 -0.25,-0.25 -0.625,-0.375 -0.375,-0.125 -0.875,-0.125 -0.5,0 -1,0 -0.5,0 -1,0 -0.5,0 -1,0 -0.5,0 -1,0 -0.5,0 -1,0 -0.5,0 -0.875,0.125 -0.375,0.125 -0.625,0.375 -0.25,0.25 -0.5,0.25 -0.25,0 -0.375,-0.375 -0.125,-0.375 0,-0.75 0.125,-0.375 0.5,-0.5 0.375,-0.125 0.75,-0.25 0.375,-0.125 0.5,-0.5 0.125,-0.375 0,-0.75 -0.125,-0.375 -0.375,-0.625 -0.25,-0.25 -0.375,-0.625 -0.125,-0.375 -0.125,-0.875 0,-0.5 0.125,-0.875 0.125,-0.375 0.375,-0.625 0.25,-0.25 0.5,-0.5 0.25,-0.25 0.625,-0.375 0.375,-0.125 0.75,-0.25 0.375,-0.125 0.625,-0.375 m 1.5,6.5 q 0.5,0 0.875,-0.125 0.375,-0.125 0.5,-0.5 0.125,-0.375 0.25,-0.75 0.125,-0.375 0.375,-0.625 0.25,-0.25 0.375,-0.625 0.125,-0.375 0.125,-0.875 0,-0.5 -0.125,-0.875 -0.125,-0.375 -0.5,-0.5 -0.375,-0.125 -0.75,0 -0.375,0.125 -0.625,0.375 -0.25,0.25 -0.625,0.375 -0.375,0.125 -0.75,0 -0.375,-0.125 -0.625,-0.375 -0.25,-0.25 -0.625,-0.375 -0.375,-0.125 -0.75,0 -0.375,0.125 -0.5,0.5 -0.125,0.375 -0.125,0.875 0,0.5 0.125,0.875 0.125,0.375 0.375,0.625 0.25,0.25 0.375,0.625 0.125,0.375 0.25,0.75 0.125,0.375 0.5,0.5 0.375,0.125 0.875,0.125 0.5,0 1,0 m -0.875,-5.125 q 0.375,0.125 0.75,0 0.375,-0.125 0.375,-0.375 0,-0.25 -0.375,-0.375 -0.375,-0.125 -0.75,0 -0.375,0.125 -0.375,0.375 0,0.25 0.375,0.375"
         style="fill:#000000;fill-opacity:1" />
      <path
         inkscape:connector-curvature="0"
         id="path15472"
         d="m 145.79747,199.23348 q 0,-0.25 0.375,-0.375 0.375,-0.125 0.75,0 0.375,0.125 0.375,0.375 0,0.25 -0.375,0.375 -0.375,0.125 -0.75,0 -0.375,-0.125 -0.375,-0.375"
         style="fill:#ffffff;fill-opacity:1" />
      <path
         inkscape:connector-curvature="0"
         id="path15474"
         d="m 143.67247,200.35848 q 0.125,-0.375 0.5,-0.5 0.375,-0.125 0.75,0 0.375,0.125 0.625,0.375 0.25,0.25 0.625,0.375 0.375,0.125 0.75,0 0.375,-0.125 0.625,-0.375 0.25,-0.25 0.625,-0.375 0.375,-0.125 0.75,0 0.375,0.125 0.5,0.5 0.125,0.375 0.125,0.875 0,0.5 -0.125,0.875 -0.125,0.375 -0.375,0.625 -0.25,0.25 -0.375,0.625 -0.125,0.375 -0.25,0.75 -0.125,0.375 -0.5,0.5 -0.375,0.125 -0.875,0.125 -0.5,0 -1,0 -0.5,0 -0.875,-0.125 -0.375,-0.125 -0.5,-0.5 -0.125,-0.375 -0.25,-0.75 -0.125,-0.375 -0.375,-0.625 -0.25,-0.25 -0.375,-0.625 -0.125,-0.375 -0.125,-0.875 0,-0.5 0.125,-0.875"
         style="fill:#090909;fill-opacity:1;stroke:#000000;stroke-width:0.5;stroke-miterlimit:4;stroke-dasharray:none;stroke-opacity:1" />
      <path
         inkscape:connector-curvature="0"
         id="path15476"
         d="m 142.79747,207.23348 q 0,-0.25 0.375,-0.375 0.375,-0.125 0.875,-0.125 0.5,0 1,0 0.5,0 1,0 0.5,0 1,0 0.5,0 1,0 0.5,0 1,0 0.5,0 0.875,0.125 0.375,0.125 0.375,0.375 0,0.25 -0.375,0.375 -0.375,0.125 -0.75,0.25 -0.375,0.125 -0.5,0.5 -0.125,0.375 0,0.75 0.125,0.375 0.375,0.625 0.25,0.25 0.375,0.625 0.125,0.375 0.125,0.875 0,0.5 0.125,0.875 0.125,0.375 0.375,0.625 0.25,0.25 0.375,0.625 0.125,0.375 0.125,0.875 0,0.5 0.125,0.875 0.125,0.375 0.375,0.625 0.25,0.25 0.5,0.5 0.25,0.25 0.5,0.5 0.25,0.25 0.375,0.625 0.125,0.375 0,0.75 -0.125,0.375 -0.5,0.5 -0.375,0.125 -0.875,0.125 -0.5,0 -1,0 -0.5,0 -1,0 -0.5,0 -1,0 -0.5,0 -1,0 -0.5,0 -1,0 -0.5,0 -1,0 -0.5,0 -1,0 -0.5,0 -1,0 -0.5,0 -1,0 -0.5,0 -0.875,-0.125 -0.375,-0.125 -0.5,-0.5 -0.125,-0.375 0,-0.75 0.125,-0.375 0.375,-0.625 0.25,-0.25 0.5,-0.5 0.25,-0.25 0.5,-0.5 0.25,-0.25 0.375,-0.625 0.125,-0.375 0.125,-0.875 0,-0.5 0.125,-0.875 0.125,-0.375 0.375,-0.625 0.25,-0.25 0.375,-0.625 0.125,-0.375 0.125,-0.875 0,-0.5 0.125,-0.875 0.125,-0.375 0.375,-0.625 0.25,-0.25 0.375,-0.625 0.125,-0.375 0,-0.75 -0.125,-0.375 -0.5,-0.5 -0.375,-0.125 -0.75,-0.25 -0.375,-0.125 -0.375,-0.375 m 7.25,10.5 q 0.5,0 0.875,-0.125 0.375,-0.125 0.375,-0.375 0,-0.25 -0.25,-0.5 -0.25,-0.25 -0.5,-0.5 -0.25,-0.25 -0.625,-0.375 -0.375,-0.125 -0.875,-0.125 -0.5,0 -1,0 -0.5,0 -1,0 -0.5,0 -1,0 -0.5,0 -1,0 -0.5,0 -1,0 -0.5,0 -0.875,0.125 -0.375,0.125 -0.625,0.375 -0.25,0.25 -0.5,0.5 -0.25,0.25 -0.25,0.5 0,0.25 0.375,0.375 0.375,0.125 0.875,0.125 0.5,0 1,0 0.5,0 1,0 0.5,0 1,0 0.5,0 1,0 0.5,0 1,0 0.5,0 1,0 0.5,0 1,0 m -2,-3 q 0.5,0 0.875,-0.125 0.375,-0.125 0.5,-0.5 0.125,-0.375 0,-0.75 -0.125,-0.375 -0.375,-0.625 -0.25,-0.25 -0.375,-0.625 -0.125,-0.375 -0.125,-0.875 0,-0.5 -0.125,-0.875 -0.125,-0.375 -0.375,-0.625 -0.25,-0.25 -0.375,-0.625 -0.125,-0.375 -0.25,-0.75 -0.125,-0.375 -0.5,-0.5 -0.375,-0.125 -0.75,0 -0.375,0.125 -0.5,0.5 -0.125,0.375 -0.25,0.75 -0.125,0.375 -0.375,0.625 -0.25,0.25 -0.375,0.625 -0.125,0.375 -0.125,0.875 0,0.5 -0.125,0.875 -0.125,0.375 -0.375,0.625 -0.25,0.25 -0.375,0.625 -0.125,0.375 0,0.75 0.125,0.375 0.5,0.5 0.375,0.125 0.875,0.125 0.5,0 1,0 0.5,0 1,0 0.5,0 1,0"
         style="fill:#000000;fill-opacity:1" />
      <path
         inkscape:connector-curvature="0"
         id="path15478"
         d="m 145.67247,208.35848 q 0.125,-0.375 0.5,-0.5 0.375,-0.125 0.75,0 0.375,0.125 0.5,0.5 0.125,0.375 0.25,0.75 0.125,0.375 0.375,0.625 0.25,0.25 0.375,0.625 0.125,0.375 0.125,0.875 0,0.5 0.125,0.875 0.125,0.375 0.375,0.625 0.25,0.25 0.375,0.625 0.125,0.375 0,0.75 -0.125,0.375 -0.5,0.5 -0.375,0.125 -0.875,0.125 -0.5,0 -1,0 -0.5,0 -1,0 -0.5,0 -1,0 -0.5,0 -0.875,-0.125 -0.375,-0.125 -0.5,-0.5 -0.125,-0.375 0,-0.75 0.125,-0.375 0.375,-0.625 0.25,-0.25 0.375,-0.625 0.125,-0.375 0.125,-0.875 0,-0.5 0.125,-0.875 0.125,-0.375 0.375,-0.625 0.25,-0.25 0.375,-0.625 0.125,-0.375 0.25,-0.75"
         style="fill:#000000;fill-opacity:1;stroke:#000000;stroke-width:0.5;stroke-miterlimit:4;stroke-dasharray:none;stroke-opacity:1" />
      <path
         inkscape:connector-curvature="0"
         id="path15480"
         d="m 142.54747,216.23348 q 0.25,-0.25 0.625,-0.375 0.375,-0.125 0.875,-0.125 0.5,0 1,0 0.5,0 1,0 0.5,0 1,0 0.5,0 1,0 0.5,0 1,0 0.5,0 0.875,0.125 0.375,0.125 0.625,0.375 0.25,0.25 0.5,0.5 0.25,0.25 0.25,0.5 0,0.25 -0.375,0.375 -0.375,0.125 -0.875,0.125 -0.5,0 -1,0 -0.5,0 -1,0 -0.5,0 -1,0 -0.5,0 -1,0 -0.5,0 -1,0 -0.5,0 -1,0 -0.5,0 -1,0 -0.5,0 -0.875,-0.125 -0.375,-0.125 -0.375,-0.375 0,-0.25 0.25,-0.5 0.25,-0.25 0.5,-0.5"
         style="fill:#000000;fill-opacity:1;stroke:#000000;stroke-width:0.5;stroke-miterlimit:4;stroke-dasharray:none;stroke-opacity:1" />
    </g>
  </g>
</svg>
